<svg xmlns="http://www.w3.org/2000/svg" xmlns:xlink="http://www.w3.org/1999/xlink" xmlns:vectornator="http://vectornator.io"><defs>
        <clipPath id="a">
            <path fill="#fff" transform="rotate(90 21.5 21.5)" d="M0 0h70v24H0z"/>
        </clipPath>
    </defs><symbol id="arrow_down" viewBox="0 0 62 92"><g fill="none">
    <path d="M9.787 40a29.837 29.837 0 0 0-8.21 15.297 29.76 29.76 0 0 0 1.707 17.26 29.902 29.902 0 0 0 11.049 13.408A30.089 30.089 0 0 0 31 91a30.089 30.089 0 0 0 16.667-5.035 29.902 29.902 0 0 0 11.05-13.407 29.76 29.76 0 0 0 1.706-17.262A29.836 29.836 0 0 0 52.213 40" stroke="currentColor" stroke-width="2" stroke-linecap="round"/>
    <g clip-path="url(#a)" stroke="currentColor" stroke-width="2" stroke-linecap="round" stroke-linejoin="round">
        <path d="M31 5v60M38 58l-7 7-7-7"/>
    </g>
    
</g></symbol><symbol id="contact"><g fill="none">
    <path d="M22 16.92v3a2 2 0 0 1-2.18 2 19.79 19.79 0 0 1-8.63-3.07 19.5 19.5 0 0 1-6-6 19.79 19.79 0 0 1-3.07-8.67A2 2 0 0 1 4.11 2h3a2 2 0 0 1 2 1.72c.127.96.361 1.903.7 2.81a2 2 0 0 1-.45 2.11L8.09 9.91a16 16 0 0 0 6 6l1.27-1.27a2 2 0 0 1 2.11-.45c.907.339 1.85.574 2.81.7A2 2 0 0 1 22 16.92Z" fill="#BC3324"/>
</g></symbol><symbol id="door" viewBox="0 0 24 24"><g fill="none">
    <path d="m10 17 5-5-5-5M15 12H3M15 3h4a2 2 0 0 1 2 2v14a2 2 0 0 1-2 2h-4" stroke="currentColor" stroke-width="2" stroke-linecap="round" stroke-linejoin="round"/>
</g></symbol><symbol id="handshake"><g fill="none">
    <path d="M16.48 10.41c-.39.39-1.04.39-1.43 0l-4.47-4.46-7.05 7.04-.66-.63a3 3 0 0 1 0-4.24l4.24-4.24a3 3 0 0 1 4.24 0L16.48 9c.39.39.39 1.02 0 1.41Zm.7-2.12c.78.78.78 2.05 0 2.83-1.27 1.27-2.61.22-2.83 0l-3.76-3.76-5.57 5.57a.996.996 0 0 0 0 1.41c.39.39 1.02.39 1.42 0l4.62-4.62.71.71-4.62 4.62a.996.996 0 0 0 0 1.41c.39.39 1.02.39 1.42 0l4.62-4.62.71.71-4.62 4.62a.997.997 0 0 0 1.41 1.41l4.62-4.62.71.71-4.62 4.62a.998.998 0 0 0 .705 1.702.997.997 0 0 0 .705-.292l8.32-8.34a3 3 0 0 0 0-4.24l-4.24-4.24a3.001 3.001 0 0 0-4.18-.06l4.47 4.47Z" fill="#BC3324"/>
</g></symbol><symbol id="home" viewBox="0 0 24 24"><g fill="none">
    <path d="m20 8-6-5.26a3 3 0 0 0-4 0L4 8a3 3 0 0 0-1 2.26V19a3 3 0 0 0 3 3h12a3 3 0 0 0 3-3v-8.75A3 3 0 0 0 20 8Zm-6 12h-4v-5a1 1 0 0 1 1-1h2a1 1 0 0 1 1 1v5Zm5-1a1 1 0 0 1-1 1h-2v-5a3 3 0 0 0-3-3h-2a3 3 0 0 0-3 3v5H6a1 1 0 0 1-1-1v-8.75a1 1 0 0 1 .34-.75l6-5.25a1 1 0 0 1 1.32 0l6 5.25a1 1 0 0 1 .34.75V19Z" fill="currentColor"/>
    <path d="M19 19a1 1 0 0 1-1 1h-2v-5a3 3 0 0 0-3-3h-2a3 3 0 0 0-3 3v5H6a1 1 0 0 1-1-1v-8.75a1 1 0 0 1 .34-.75l6-5.25a1 1 0 0 1 1.32 0l6 5.25a1 1 0 0 1 .34.75V19Z" fill="currentColor"/>
</g></symbol><symbol id="information"><g fill="none">
    <path fill-rule="evenodd" clip-rule="evenodd" d="M12 23c6.075 0 11-4.925 11-11S18.075 1 12 1 1 5.925 1 12s4.925 11 11 11Zm-1-6.6a1 1 0 0 1 1-1h.011a1 1 0 1 1 0 2H12a1 1 0 0 1-1-1Zm2-8.8a1 1 0 1 0-2 0V12a1 1 0 1 0 2 0V7.6Z" fill="#BC3324"/>
</g></symbol><symbol id="link" viewBox="0 0 92 62"><g fill="none">
    <path d="M40 52.213a29.836 29.836 0 0 0 15.297 8.21 29.76 29.76 0 0 0 17.26-1.707 29.902 29.902 0 0 0 13.408-11.049A30.089 30.089 0 0 0 91 31a30.089 30.089 0 0 0-5.035-16.667 29.902 29.902 0 0 0-13.407-11.05 29.76 29.76 0 0 0-17.262-1.707A29.837 29.837 0 0 0 40 9.786" stroke="currentColor" stroke-width="2" stroke-linecap="round"/>
    <path d="M5 31h60M58 24l7 7-7 7" stroke="currentColor" stroke-width="2" stroke-linecap="round" stroke-linejoin="round"/>
</g></symbol><symbol id="location" viewBox="0 0 24 24"><g fill="none">
    <circle cx="12" cy="12" r="9" fill="currentColor"/>
</g></symbol><symbol id="logo" viewBox="0 0 202 147"><g fill="none">
    <path fill="#1F1E1E" d="M0 0h147v147H0z"/>
    <path d="M39.965 72.439H26.633V50.032h-.032v-.033h-4.686V73h18.05v-.561ZM43.932 73h18.117v-.561H48.618V61.285h10.494v-.594H48.618V50.56h13.43v-.561H43.933V73ZM70.7 73V50.56c2.87 0 11.714 1.089 12.374 13.893V73h4.686V49.999h-4.686v10.329C81.655 54.19 77.167 49.999 70.7 49.999h-4.686V73H70.7ZM97.39 73V50.56c2.87 0 11.714 1.089 12.374 13.893V73h4.686V49.999h-4.686v10.329c-1.419-6.138-5.907-10.329-12.375-10.329h-4.686V73h4.686ZM119.393 73h4.686V49.999h-4.686V73Z" fill="#fff"/>
    <path fill="#BC3324" d="M81 92h121v42H81z"/>
    <path d="M108.922 124h.54l2.94-8.55h8.55l3.33 8.55h4.47l-8.1-20.91h-4.53l-7.2 20.91Zm7.5-20.25 4.35 11.19h-8.19l3.84-11.19ZM132.644 103.09V124h4.26v-7.23h5.07l4.89 7.2h4.86l-5.16-7.65c3-.78 5.28-2.64 5.28-6.81 0-5.22-3.81-6.87-8.25-6.87-4.68 0-6.03 3.51-6.69 7.41v-6.96h-4.26Zm5.43 4.38c.81-2.94 2.91-4.14 4.77-4.29 4.47-.42 4.65 2.43 4.65 6.33 0 6.33-3.36 6.75-6.24 6.75h-4.35s-.12-4.14 1.17-8.79ZM162.084 103.6l.03 20.4h4.26v-20.4h8.61v-.51h-21.51v.51h8.61Z" fill="#fff"/>
</g></symbol><symbol id="loupe" viewBox="0 0 512 512"><g fill="#fff">
    <path d="M270.746 117.149c-20.516-20.514-47.79-31.812-76.802-31.811-12.854 0-23.273 10.42-23.273 23.273.002 12.854 10.42 23.273 23.274 23.273 16.578 0 32.163 6.454 43.886 18.178 11.723 11.723 18.178 27.308 18.178 43.885-.002 12.853 10.418 23.274 23.271 23.274h.002c12.851 0 23.271-10.418 23.273-23.271.001-29.011-11.295-56.287-31.809-76.801z"/>
    <path d="M505.183 472.272 346.497 313.586c25.921-32.979 41.398-74.536 41.398-119.639C387.894 87.005 300.89 0 193.946 0h-.003C142.14 0 93.434 20.175 56.806 56.804 20.173 93.437 0 142.141 0 193.947 0 300.89 87.004 387.894 193.946 387.894c45.103 0 86.661-15.476 119.639-41.396L472.27 505.184A23.202 23.202 0 0 0 488.727 512a23.186 23.186 0 0 0 16.455-6.817c9.091-9.087 9.091-23.824.001-32.911zM193.946 341.349c-81.276 0-147.4-66.124-147.4-147.402 0-39.373 15.332-76.389 43.172-104.229 27.84-27.842 64.855-43.172 104.228-43.172 81.279 0 147.403 66.124 147.403 147.402s-66.124 147.401-147.403 147.401z"/>
</g></symbol><symbol id="racoon" viewBox="0 0 1112 834"><g stroke-miterlimit="10" style="fill-rule:nonzero;clip-rule:evenodd;stroke-linecap:round;stroke-linejoin:round">
    <g vectornator:layerName="&#x421;&#x43b;&#x43e;&#x439; 3">
        <g vectornator:layerName="&#x413;&#x440;&#x443;&#x43f;&#x43f;&#x430; 6">
            <g vectornator:layerName="&#x413;&#x440;&#x443;&#x43f;&#x43f;&#x430; 4" stroke-width="5.146">
                <g vectornator:layerName="&#x413;&#x440;&#x443;&#x43f;&#x43f;&#x430; 3">
                    <g vectornator:layerName="&#x413;&#x440;&#x443;&#x43f;&#x43f;&#x430; 2">
                        <g vectornator:layerName="&#x413;&#x440;&#x443;&#x43f;&#x43f;&#x430; 1">
                            <path d="M445.125 254.719c-.095-.007-5.013 5.643-5.469 6.281-4.73 6.622-4.975 15.748-6.656 23.312-1.937 8.715.933 19.249 2.156 27.813 1.933 13.526 1.951 27.29 3.313 40.906.387 3.871.112 7.896.593 11.75.523 4.183 1.721 8.674 1.188 12.938-.369 2.955-1 6.023-1 9 0 .584.141 1.406 0 1.969-.065.261-.457.781-.188.781.365 0-.026-1.033.594-1.188.25-.062.499-.002.75-.031-.127.353-.32.969-.437 1.25-1.081 2.599-2.858 5.046-3.969 7.719-2.704 6.504-4.471 13.519-6.469 20.281-1.364 4.617-3.577 9.165-4.906 13.906-1.732 6.177-2.793 12.405-4.594 18.5-.586 1.986-2.051 3.621-2.625 5.563-1.231 4.166-3.169 8.155-4.718 12.25-1.219 3.221-.954 6.737-1.969 9.937-2.076 6.543-3.361 14.453-3.031 21.25.374 7.731 9.452 17.037 14.406 22.313 2.718 2.895 5.462 5.95 8.625 8.406 4.204 3.265 9.477 5.304 14.031 8.094 6.635 4.064 12.923 8.744 20.094 11.906 6.166 2.719 12.448 5.064 18.187 8.625 1.589.986 3.512 1.053 5.063 1.938 16.337 9.318 35.586 11.821 53.187 17.406 3.723 1.181 7.565 2.635 11.407 3.156 2.485.685 5.107.955 7.656 1.875 3.466 1.251 7.171 1.333 10.781 1.875 6.488.974 12.592 1.393 19.156 1.219 22.615-.6 45.609-6.396 66.75-13.969 3.813-1.366 7.921-1.917 11.688-3.344 6.773-2.566 13.448-5.279 20.219-7.844 4.321-1.637 9.45-3.116 13.406-5.562 4.635-2.866 9.096-5.877 13.875-8.562 4.117-2.314 11.364-5.944 15-10.813l4.593-.25c.914 0 1.375-.781 1.938-1.344 1.214-1.213 3.158-2.007 4.5-3.125 1.838-1.531 3.447-3.377 5.281-4.906 10.18-8.483 19.12-20.821 17.375-34.781-1.242-9.936-4.399-20.332-7.812-29.719-1.02-2.805-2.459-5.53-3.313-8.375-5.772-19.241-13.006-38.082-19.343-57.094-1.542-4.625-1.338-10.563-.407-15.219.527-2.633-.055-5.434.594-8.031 1.062-4.248-.874-9.224.187-13.469 1.956-7.821.827-16.46 2.157-24.437.869-5.216.69-10.61 1.562-15.844 1.141-6.846 1.966-13.923.969-20.906-.559-3.914.07-7.954-1.562-11.344.727-2 1.205-4.127 1.406-5.843.462-3.958-1.186-9.313-2.25-13.094-.745-2.648-2.418-4.792-4.313-6.656-1.278-1.258-2.188-3.016-3.843-3.876-4.499-2.335-11.079-1.097-15.813-.781-4.448.298-11.618 3.815-15.656 5.875-1.902.97-4.106 1.393-6.031 2.375-2.936 1.498-5.417 3.711-8.313 5.188-1.958.999-4.174 1.778-6.063 2.969-3.424 2.157-6.589 5.257-9.781 7.781-2.786 2.203-6.654 2.362-9.469 4.343-1.264.891-.571 3.93-.718 5.188-.296 2.528-.266 5.413-.75 7.938-.478 2.49-1.7 4.712-1.875 7.25-.111 1.613 1.869 6.524.875 7.718-.496.596-.988-6.668-1.156-7.781-.026-.172-.377-2.253-.688-2.25-.581.005-.935 2.981-1.062 3.375-1.132 3.489-1.218 5.606-4.563 7.312-3.105 1.584-10.594.694-14.281 1.25-8.024 1.213-16.142.144-24.125-.406-5.83-.401-11.857-.052-17.625-1.406-5.579-1.309-11.294-3.559-16.438-5.969-3.428-1.606-7.138-2.583-10.562-4.187-2.557-1.198-4.371-3.393-7.438-3.188-1.015.068-1.87.597-2.594 1.282-.149.008-.243-.052-.406-.032l-1.375.969c-8.801-6.543-18.747-11.004-29.562-14.094-4.602-1.315-10.315-1.989-14.5-4.5-1.703-1.022-3.509-2.164-4.875-3.531-1.623-1.623-2.292-3.934-4.313-5.281-2.507-1.672-5.266-2.465-7.843-3.938-1.819-1.039-2.43-2.798-3.907-3.906-1.485-1.114-4.86-1.67-6.656-1.969-2.076-.346-4.013-1.6-5.875-2.531-3.031-1.515-7.219-4.906-10.594-5.281-4.684-.521-9.348-.241-13.906-1-2.423-.404-4.067.996-5.094-.469-.225-.322-.389-.878-.781-.906Z" fill="#86675c" stroke="#86675c" vectornator:layerName="&#x41a;&#x440;&#x438;&#x432;&#x430;&#x44f; 4"/>
                            <path d="M598.81 162.702c.436-.67-1.511-2.1-1.901-2.8-.479-.859-.544-1.931-1.173-2.718-1.175-1.474-5.635-1.934-7.356-1.937-3.495-.005-8.467-.881-11.82-.037-8.677 2.186-22.644 9.025-24.821 18.638-.631 2.787.767 4.574 1.795 7.037 1.19 2.855 2.133 5.41 3.901 8.014 1.47 2.164 3.842 3.196 5.731 4.894 1.975 1.776 3.564 4.014 5.445 5.786 1.689 1.591 6.106 4.548 6.235 6.983.291 5.477-1.233 10.973-1.483 16.46-.223 4.897-.635 9.612-1.622 14.412-.919 4.472-3.608 8.507-4.417 12.99-1.044 5.78-1.599 11.667-2.701 17.431-1.601 8.379-3.094 17.176-1.962 25.644.439 3.282 5.631 2.8 7.881 3.843.865.4 1.526 1.307 2.39 1.747 1.241.631 2.662.586 3.952.999 1.857.594 4.936 1.539 6.545 2.584.617.4 1.104.912 1.701 1.3.37.24.963 1.291 1.013.853.158-1.406-6.896-2.993-7.964-3.113-.721-.082-1.343-.055-2.048.139-.263.072-1.019.167-.77.282 1.825.846 4.27.822 6.079 1.793 3.05 1.637 4.966 3.848 8.529 4.655 1.628.368 3.334.209 4.967.189 4.397-.054 8.882 1.267 13.359 1.134 2.367-.071 4.59 1.391 6.891 1.145 2.294-.246 4.473-1.199 6.794-1.268.946-.028 1.634.749 2.472 1.017 2.213.708 4.943.372 7.176.254 4.45-.237 8.931-2.542 13.284-3.124 3.079-.412 2.764-3.367 3.232-5.733.916-4.632.869-9.367 1.398-14.068 1.838-16.33 4.958-32.563 6.8-48.932.512-4.55.371-9.077 1.519-13.5.209-.804-.046-3.451.634-3.993.799-.637 5.469-.432 6.752-.903 4.456-1.634 8.503-5.267 12.824-7.24 2.347-1.072 5.222-3.668 7.245-5.281.55-.439.996-1.165 1.482-1.681.237-.252.851-.991.812-.647-.14 1.239-8.791 6.68-10.31 7.892-.533.425-2.765 1.586-2.842 2.267-.039.346 3.43-1.906 3.551-2.003 1.7-1.356 3.503-2.156 5.033-3.682.772-.77 2.294-2.329 2.294-2.329l-2.638 2.105a83.975 83.975 0 0 0-4.913 4.251c-.348.325-3.296 2.219-3.226 2.408.147.403 2.939-1.401 3.124-1.496 2.737-1.411 5.391-4.359 7.227-6.761 4.588-6.006 6.431-10.991 5.784-18.563-.222-2.592-.954-5.775-2.625-7.87-1.039-1.302-2.922-2.19-4.273-3.067-2.437-1.582-4.701-3.998-7.576-4.917-4.094-1.309-9.473-2.237-13.803-2.108-2.964.089-7.412 2.696-10.18 1.81-1.606-.513-.735-2.669-1.049-3.812-.643-2.336-4.226-5.943-5.97-7.693-3.36-3.368-11.927-7.494-16.572-8.7-1.582-.411-3.339-.291-4.905-.737-2.317-.659-4.767-1.365-7.236-1.368-2.641-.004-5.261 2.218-7.567 3.213-3.857 1.662-8.043 3.261-11.382 5.924-2.529 2.017-4.899 4.669-7.733 6.335-2.031 1.194-5.513-.257-5.247-2.623" fill="#e0cfcc" stroke="#e0cfcc" vectornator:layerName="&#x41a;&#x440;&#x438;&#x432;&#x430;&#x44f; 2"/>
                            <path d="M581.317 160.549c3.765-2.213 7.448-2.34 11.578-1.099 2.502.752 5.28 2.336 7.313 3.964 3.789 3.035 6.958 11.554 2.148 15.391-2.141 1.708-4.924 2.437-7.546 3.03-4.607 1.043-7.056-.172-10.132-3.541-1.048-1.148-3.295-2.308-3.827-3.757" fill="#e0cfcc" stroke="#e0cfcc" vectornator:layerName="&#x41a;&#x440;&#x438;&#x432;&#x430;&#x44f; 3"/>
                        </g>
                        <path d="M412.777 499.949c3.485 8.061 5.755 15.57 10.685 22.692 5.602 8.093 19.335 11.246 27.177 16.872 28.104 20.161 72.684 37.433 106.627 41.952 6.907.919 13.917 2.87 20.791 4.121 5.266.958 10.92-.584 16.169.001 3.478.388 5.775 1.324 9.029-.845 4.726-3.15 7.748-8.939 11.071-13.308 1.936-2.544 5.09-6.24 5.737-9.472 5.489-27.434-2.594-57.756-12.696-83.437-5.658-14.385-13.551-28.332-18.36-42.971a268.489 268.489 0 0 1-7.301-26.995c-3.518-16.451 3.432-29.979-16.082-38.711-4.029-1.804-8.675-3.005-13.148-2.618-22.981 1.989-42.083 18.827-60.867 30.03-23.535 14.036-51.165 25.598-69.082 46.909-6.806 8.097-14.138 33.646-11.261 44.198 1.462 5.364 1.145 10.229 3.367 15.368.688 1.592.58 3.165.989 4.816.231.929.942 3.694.562 2.816-1.364-3.155-8.803-21.059-3.6-22.478" fill="#e0cfcc" stroke="#e0cfcc" vectornator:layerName="&#x41a;&#x440;&#x438;&#x432;&#x430;&#x44f; 2"/>
                        <path d="M619.906 367.219c-3.383.259-6.759 1.272-9.781 2.625-19.513 8.732-12.576 22.267-16.094 38.718-1.902 8.896-4.434 18.335-7.281 27-4.809 14.639-12.717 28.584-18.375 42.969-10.102 25.682-18.176 56.003-12.687 83.438.646 3.231 3.814 6.924 5.75 9.469 3.323 4.368 6.336 10.162 11.062 13.312 3.255 2.17 5.552 1.232 9.031.844 5.249-.586 10.89.958 16.157 0 6.873-1.251 13.875-3.206 20.781-4.125 33.944-4.519 78.552-21.808 106.656-41.969 7.843-5.626 21.554-8.75 27.156-16.844 3.766-5.44 6.018-11.222 8.407-17.187.102-.577.188-1.142.437-1.719 1.06-2.453 1.533-4.869 1.906-7.281l.125-7.594c.49.134.781.538 1.063.937.108-.489.114-.94.25-1.437 2.877-10.552-4.444-36.122-11.25-44.219-17.916-21.311-45.559-32.869-69.094-46.906-18.784-11.203-37.863-28.042-60.844-30.031a20.67 20.67 0 0 0-3.375 0Zm144.313 122.593c-.503 2.27-.852 4.484-1.188 6.657l-.062 3.469a212.724 212.724 0 0 0-2.281 5.531c-.182 1.014-.302 2.041-.563 3.093-.23.93-.942 3.691-.563 2.813 1.236-2.858 7.364-17.717 4.657-21.563Z" fill="#e0cfcc" stroke="#e0cfcc" vectornator:layerName="&#x41a;&#x440;&#x438;&#x432;&#x430;&#x44f; 5"/>
                        <path d="M570.067 379.063c7.046 0 8.635 11.078 14.979 11.984 7.368 1.053 11.302-11.318 14.979-11.318.45 0 .021.929.222 1.332 1.739 3.477 1.221 8.738 1.221 12.538 0 9.647-.935 19.993-3.107 29.404-.844 3.657-2.053 8.507-6.214 9.432-15.932 3.54-19.338-26.724-18.752-37.283.153-2.754-.367-10.12 2.552-11.872 2.723-1.634 6.777 4.944 11.873 4.216 6.608-.944 9.941-10.824 17.753-6.657 3.506 1.869 4.061 7.113 4.217 10.541.479 10.542-3.651 21.952-14.203 26.297-13.372 5.506-23.958-14.583-23.301-25.742.161-2.733-1.199-11.833 2.885-12.65 3.72-.744 6.015 3.258 9.653 3.662 7.307.812 12.97-7.5 19.973-1.664 3.633 3.028 2.892 9.064 1.997 13.093-2.572 11.572-7.622 19.036-19.085 22.857" fill="#e0cfcc" stroke="#e0cfcc" vectornator:layerName="&#x41a;&#x440;&#x438;&#x432;&#x430;&#x44f; 3"/>
                        <path d="M612.363 371.07c-1.179-1.947-5.65.621-6.791 1.205-6.385 3.27-11.044 7.78-18.563 8.838-6.134.862-10.27-5.289-15.066-7.821-2.071-1.094-4.303-1.771-5.954.848-2.543 4.034 1.032 8.054 3.576 10.871 4.697 5.199 8.913 10.224 15.083 13.727 4.955 2.812 18.509 7.691 24.113 4.297" fill="#e0cfcc" stroke="#e0cfcc" vectornator:layerName="&#x41a;&#x440;&#x438;&#x432;&#x430;&#x44f; 4"/>
                    </g>
                    <path d="M546.835 373.048c-4.486 12.95-15.867 19.812-26.045 27.955-30.316 24.253-74.148 32.919-90.546 72.273-14.786 35.487 9.758 67.375 41.728 79.363.807.303 1.636.546 2.454.819 10.928 3.642 20.535 13.048 31.921 15.325 1.523.305 7.017 6.168 7.712 4.779.288-.576-4.369-3.417-8.748-10.67-2.103-3.483-2.794-6.978-3.612-10.798-2.149-10.026 4.493-22.648 8.454-31.364 13.37-29.414 44.301-49.758 55.364-80.182 2.903-7.982 4.369-15.853 4.091-24-.785-23.031-7.135-29.345-13.909-40.636-.791-1.318-6.146-7.734-8.079-6.767-.201.1-.73 3.745-.785 3.903Z" fill="#3a2728" stroke="#3a2728" vectornator:layerName="&#x41a;&#x440;&#x438;&#x432;&#x430;&#x44f; 3"/>
                    <path d="M627.188 369.812c-2.331.599-6.527 5.628-7.219 6.782-6.775 11.29-13.122 17.624-13.907 40.656-.277 8.146 1.192 16.018 4.094 24 11.063 30.424 42.005 50.774 55.375 80.188 3.962 8.715 10.586 21.317 8.438 31.343-.819 3.82-1.491 7.33-3.594 10.813-2.912 4.823-5.205 7.039-6.625 8.437.648-.238 1.276-.585 1.938-.687.323-.05.644.01.968 0 1.05-.835 2.181-1.774 2.688-1.875 11.386-2.277 20.978-11.67 31.906-15.313.818-.273 1.661-.509 2.469-.812 31.969-11.989 56.505-43.888 41.719-79.375-16.398-39.354-60.216-48.029-90.532-72.281-10.178-8.143-21.576-14.988-26.062-27.938-.055-.159-.58-3.806-.782-3.906-.241-.121-.542-.117-.874-.032Z" fill="#3a2728" stroke="#3a2728" vectornator:layerName="&#x41a;&#x440;&#x438;&#x432;&#x430;&#x44f; 4"/>
                    <path d="M495.906 545.5c-.424-.094 1.481 6.94 1.906 8 .45 1.118 1.068 2.126 1.563 3.219 2.797 6.177 10.012 15.984 17.25 17.75-.003-.029.003-.065 0-.094-.005-.043.003-.082 0-.125 0 0-1.943-.476-8.357-5.467-4.897-3.81-6.112-14.698-6.112-14.698l-7.324-31.613 1.074 23.028Z" fill="#3a2728" stroke="#3a2728" vectornator:layerName="&#x41a;&#x440;&#x438;&#x432;&#x430;&#x44f; 2"/>
                </g>
                <path d="M481.381 264.482c1.461-2.923-5.104 2.983-5.891 3.927-3.45 4.14-7.508 7.804-9.49 13.09-3.851 10.269-8.781 52.087 0 60.868.984.984 3.81-6.965 4.254-7.854 2.461-4.921 5.945-8.953 9.491-13.09 5.932-6.922 14.919-13.469 21.925-19.308 2.893-2.41 10.073-5.092 11.781-8.508" fill="#d2887f" stroke="#d2887f" vectornator:layerName="&#x41a;&#x440;&#x438;&#x432;&#x430;&#x44f; 2"/>
                <path d="M693.86 264.482c-1.461-2.923 5.104 2.983 5.891 3.927 3.45 4.14 7.508 7.804 9.49 13.09 3.851 10.269 8.781 52.087 0 60.868-.984.984-3.81-6.965-4.254-7.854-2.46-4.921-5.945-8.953-9.49-13.09-5.933-6.922-14.92-13.469-21.926-19.308-2.893-2.41-10.073-5.092-11.781-8.508" fill="#d2887f" stroke="#d2887f" vectornator:layerName="&#x41a;&#x440;&#x438;&#x432;&#x430;&#x44f; 1"/>
                <path d="M721.469 256.156c-12.002.589-33.188 12.016-40.875 16.375-11.143 6.32-22.242 8.196-24.625 22.094-.314 1.829-1.422 4.391-.969 6.281.091.381 12.685 4.114 13.906 4.625.013.006-.156.9-.312 1.688a4.108 4.108 0 0 1 3 1.062c.123.08.291.065.406.157.604-2.21 1.257-4.72 1.562-5.376 6.603-14.173 25.152-29.072 39.563-35.781 11.131-5.182 23.963 3.445 27.719 14.5l-.25-1.312c-1.256-8.202-5.386-20.877-14.594-23.844-1.272-.41-2.817-.553-4.531-.469Z" fill="#3a2728" stroke="#3a2728" vectornator:layerName="&#x41a;&#x440;&#x438;&#x432;&#x430;&#x44f; 4"/>
                <path d="M452.175 256.156c12.001.589 33.188 12.016 40.875 16.375 3.336 1.892 9.36 4.673 15.644 7.419 1.96.857 2.677 1.629 4.757 2.335 1.258.427 4.521.312 4.563 1.652.371 11.62 25.524 5.128 26.837 12.783.313 1.828-25.755 2.296-26.207 4.186-.091.381-12.686 4.114-13.907 4.625-.012.006.157.9.313 1.688a4.108 4.108 0 0 0-3 1.062c-.124.08-.291.065-.406.157-.604-2.21-1.257-4.72-1.563-5.376-6.602-14.173-25.152-29.072-39.562-35.781-11.132-5.182-23.964 3.445-27.719 14.5l.25-1.312c1.256-8.202 5.385-20.877 14.594-23.844 1.272-.41 2.816-.553 4.531-.469Z" fill="#3a2728" stroke="#3a2728" vectornator:layerName="&#x41a;&#x440;&#x438;&#x432;&#x430;&#x44f; 3"/>
            </g>
            <g vectornator:layerName="&#x413;&#x440;&#x443;&#x43f;&#x43f;&#x430; 5">
                <path d="M451.919 252.51c-36.411 0-9.778 101.328-15.64 140.109" fill="none" stroke="#3a2728" stroke-width="5.146" vectornator:layerName="&#x41a;&#x440;&#x438;&#x432;&#x430;&#x44f; 3"/>
                <path d="M561.099 297.097c-7.378-1.847-21.69-2.316-36.058-10.036-16.268-8.741-38.336-21.912-56.022-30.661-7.441-3.681-14.294-3.964-19.639-3.805" fill="none" stroke="#3a2728" stroke-width="5.146" vectornator:layerName="&#x41a;&#x440;&#x438;&#x432;&#x430;&#x44f; 80"/>
                <path d="M437.021 385.208c-.168.541-.042 3.614-.465 5.976-.719 4.016-2.599 8.753-4.18 13.47-4.256 12.698-15.839 44.019-19.768 58.339-3.76 13.704-7.958 27.911-5.323 38.296 5.928 23.358 29.878 34.891 55.484 49.756 46.082 26.752 91.277 33.999 124.242 36.975" fill="none" stroke="#3a2728" stroke-width="5.146" vectornator:layerName="&#x41a;&#x440;&#x438;&#x432;&#x430;&#x44f; 7"/>
                <path d="M561.205 297.733c-5.34.339-59.352 4.814-72.898 18.543-13.923 14.113-47.857 64.443-55.985 88.58" fill="none" stroke="#3a2728" stroke-linecap="butt" stroke-width="5.146" vectornator:layerName="&#x41a;&#x440;&#x438;&#x432;&#x430;&#x44f; 81"/>
                <path d="M587.927 587.908c4.512-.221-2.875.177-2.212.133.664-.044-11.544-1.283-.398 0" fill="none" stroke="#3a2728" stroke-linecap="butt" stroke-width="5.146" vectornator:layerName="&#x41a;&#x440;&#x438;&#x432;&#x430;&#x44f; 1"/>
                <g vectornator:layerName="&#x413;&#x440;&#x443;&#x43f;&#x43f;&#x430; 1" fill="none" stroke="#3a2728" stroke-width="5.146">
                    <path d="M722.5 252.51c36.412 0 9.779 101.328 15.64 140.109" vectornator:layerName="&#x41a;&#x440;&#x438;&#x432;&#x430;&#x44f; 3"/>
                    <path d="M655.398 283.777c15.424-8.52 34.415-19.667 50.002-27.377 7.442-3.681 14.294-3.964 19.639-3.805" vectornator:layerName="&#x41a;&#x440;&#x438;&#x432;&#x430;&#x44f; 20"/>
                    <path d="M737.399 385.208c.167.541.041 3.614.464 5.976.719 4.016 2.599 8.753 4.18 13.47 4.256 12.698 15.839 44.019 19.768 58.339 3.76 13.704 7.958 27.911 5.323 38.296-5.928 23.358-29.878 34.891-55.483 49.756-45.068 26.163-89.287 33.671-122.048 36.772" vectornator:layerName="&#x41a;&#x440;&#x438;&#x432;&#x430;&#x44f; 7"/>
                    <path d="M651.774 302.98c14.223 2.896 28.3 7.177 34.338 13.296 13.923 14.113 47.858 64.443 55.985 88.58" stroke-linecap="butt" vectornator:layerName="&#x41a;&#x440;&#x438;&#x432;&#x430;&#x44f; 21"/>
                </g>
                <path d="M578.49 473.465c3.037-2.186 11.887-2.607 15.114-1.597" fill="none" stroke="#3a2728" stroke-width="5.146" vectornator:layerName="&#x41a;&#x440;&#x438;&#x432;&#x430;&#x44f; 6"/>
                <path d="M575.971 475.329c-3.653-1.143-11.996 7.597-8.195 8.048" fill="none" stroke="#3a2728" stroke-width="5.146" vectornator:layerName="&#x41a;&#x440;&#x438;&#x432;&#x430;&#x44f; 7"/>
                <path d="M569.99 483.113c1.418-.11 4.12.154 5.252-.661" fill="none" stroke="#3a2728" stroke-width="5.146" vectornator:layerName="&#x41a;&#x440;&#x438;&#x432;&#x430;&#x44f; 8"/>
                <path d="M572.005 479.872c1.807-.292 3.71-.204 5.54-.331" fill="none" stroke="#3a2728" stroke-width="5.146" vectornator:layerName="&#x41a;&#x440;&#x438;&#x432;&#x430;&#x44f; 9"/>
                <path d="M575.937 477.732c1.224-.198 2.56.256 3.751.522" fill="none" stroke="#3a2728" stroke-width="5.146" vectornator:layerName="&#x41a;&#x440;&#x438;&#x432;&#x430;&#x44f; 10"/>
                <path d="M580.079 476.311c.311-.051.624-.013.938-.011" fill="none" stroke="#3a2728" stroke-width="5.146" vectornator:layerName="&#x41a;&#x440;&#x438;&#x432;&#x430;&#x44f; 11"/>
                <path d="M582.643 476.178c.733-.726 1.612-1.105 2.766-.917" fill="none" stroke="#3a2728" stroke-width="5.146" vectornator:layerName="&#x41a;&#x440;&#x438;&#x432;&#x430;&#x44f; 12"/>
                <path d="M586.463 475.091c.522-.085.916-.219 1.411.006" fill="none" stroke="#3a2728" stroke-width="5.146" vectornator:layerName="&#x41a;&#x440;&#x438;&#x432;&#x430;&#x44f; 13"/>
                <path d="m589.742 475.313 1.191-.193" fill="none" stroke="#3a2728" stroke-width="5.146" vectornator:layerName="&#x41a;&#x440;&#x438;&#x432;&#x430;&#x44f; 14"/>
                <path d="m593.42 475.094.55-.089" fill="none" stroke="#3a2728" stroke-width="5.146" vectornator:layerName="&#x41a;&#x440;&#x438;&#x432;&#x430;&#x44f; 15"/>
                <path d="M596.185 474.459c.448-.131.236-.085.634-.15" fill="none" stroke="#3a2728" stroke-width="5.146" vectornator:layerName="&#x41a;&#x440;&#x438;&#x432;&#x430;&#x44f; 16"/>
                <path d="m598.198 474.698.754.301" fill="none" stroke="#3a2728" stroke-width="5.146" vectornator:layerName="&#x41a;&#x440;&#x438;&#x432;&#x430;&#x44f; 17"/>
                <path d="M600.26 475.821c2.002.751 5.138 3.013 6.163 4.974" fill="none" stroke="#3a2728" stroke-width="5.146" vectornator:layerName="&#x41a;&#x440;&#x438;&#x432;&#x430;&#x44f; 18"/>
                <path d="M607.157 482.134c.14.866-.61 1.069-1.046 1.673" fill="none" stroke="#3a2728" stroke-width="5.146" vectornator:layerName="&#x41a;&#x440;&#x438;&#x432;&#x430;&#x44f; 19"/>
                <path d="m605.764 484.569-.022-.138" fill="none" stroke="#3a2728" stroke-width="5.146" vectornator:layerName="&#x41a;&#x440;&#x438;&#x432;&#x430;&#x44f; 20"/>
                <path d="M603.022 486.798c-.14.101-.074.028-.146.259" fill="none" stroke="#3a2728" stroke-width="5.146" vectornator:layerName="&#x41a;&#x440;&#x438;&#x432;&#x430;&#x44f; 21"/>
                <path d="m601.444 488.087-.421.304" fill="none" stroke="#3a2728" stroke-width="5.146" vectornator:layerName="&#x41a;&#x440;&#x438;&#x432;&#x430;&#x44f; 22"/>
                <path d="M600.126 489.241c-.473-.148-.524.312-.69.675" fill="none" stroke="#3a2728" stroke-width="5.146" vectornator:layerName="&#x41a;&#x440;&#x438;&#x432;&#x430;&#x44f; 23"/>
                <path d="M599.044 490.685c-.598-.187-1.555 1.851-1.934 2.287" fill="none" stroke="#3a2728" stroke-width="5.146" vectornator:layerName="&#x41a;&#x440;&#x438;&#x432;&#x430;&#x44f; 24"/>
                <path d="m596.105 494.028-.338.524" fill="none" stroke="#3a2728" stroke-width="5.146" vectornator:layerName="&#x41a;&#x440;&#x438;&#x432;&#x430;&#x44f; 25"/>
                <path d="M594.476 496.453c-.152.11-.077.027-.139.305" fill="none" stroke="#3a2728" stroke-width="5.146" vectornator:layerName="&#x41a;&#x440;&#x438;&#x432;&#x430;&#x44f; 26"/>
                <path d="m592.15 497.77-.475.547" fill="none" stroke="#3a2728" stroke-width="5.146" vectornator:layerName="&#x41a;&#x440;&#x438;&#x432;&#x430;&#x44f; 27"/>
                <path d="m590.137 499.27-.535.181" fill="none" stroke="#3a2728" stroke-width="5.146" vectornator:layerName="&#x41a;&#x440;&#x438;&#x432;&#x430;&#x44f; 28"/>
                <path d="m587.926 500.427-.031.099" fill="none" stroke="#3a2728" stroke-width="5.146" vectornator:layerName="&#x41a;&#x440;&#x438;&#x432;&#x430;&#x44f; 29"/>
                <path d="M587.145 501.117c-.237-.02-.128-.026-.329.006" fill="none" stroke="#3a2728" stroke-width="5.146" vectornator:layerName="&#x41a;&#x440;&#x438;&#x432;&#x430;&#x44f; 30"/>
                <path d="m586.493 501.74-.229.037" fill="none" stroke="#3a2728" stroke-width="5.146" vectornator:layerName="&#x41a;&#x440;&#x438;&#x432;&#x430;&#x44f; 31"/>
                <path d="M584.649 499.64c-.338-.325-.642-.618-1.071-.814" fill="none" stroke="#3a2728" stroke-width="5.146" vectornator:layerName="&#x41a;&#x440;&#x438;&#x432;&#x430;&#x44f; 32"/>
                <path d="M582.649 498.318c-.263-.138-.142-.062-.365-.223" fill="none" stroke="#3a2728" stroke-width="5.146" vectornator:layerName="&#x41a;&#x440;&#x438;&#x432;&#x430;&#x44f; 33"/>
                <path d="M580.661 496.195c-2.568-4.907-9.048-7.016-11.406-10.942" fill="none" stroke="#3a2728" stroke-width="5.146" vectornator:layerName="&#x41a;&#x440;&#x438;&#x432;&#x430;&#x44f; 34"/>
                <path d="M570.656 485.778c1.022-.613 7.959-.043 8.786.554" fill="none" stroke="#3a2728" stroke-width="5.146" vectornator:layerName="&#x41a;&#x440;&#x438;&#x432;&#x430;&#x44f; 35"/>
                <path d="M577.377 487.513c1.37.223 3.027 1.734 4.046 2.636" fill="none" stroke="#3a2728" stroke-width="5.146" vectornator:layerName="&#x41a;&#x440;&#x438;&#x432;&#x430;&#x44f; 36"/>
                <path d="M579.741 490.797c1.938.072 4.161.988 6.027 1.517" fill="none" stroke="#3a2728" stroke-width="5.146" vectornator:layerName="&#x41a;&#x440;&#x438;&#x432;&#x430;&#x44f; 37"/>
                <path d="M582.357 494.182c1.936-.447 4.481-.647 6.4.046" fill="none" stroke="#3a2728" stroke-width="5.146" vectornator:layerName="&#x41a;&#x440;&#x438;&#x432;&#x430;&#x44f; 38"/>
                <path d="M585.035 495.629c1.324-.953 4.287-.861 5.84-.803" fill="none" stroke="#3a2728" stroke-width="5.146" vectornator:layerName="&#x41a;&#x440;&#x438;&#x432;&#x430;&#x44f; 39"/>
                <path d="M586.862 496.462c-1.549-1.118 3.798-.662 5.553-1.415" fill="none" stroke="#3a2728" stroke-width="5.146" vectornator:layerName="&#x41a;&#x440;&#x438;&#x432;&#x430;&#x44f; 40"/>
                <path d="M585.822 497.006c1.239-1.15 3.807-1.478 5.321-2.27" fill="none" stroke="#3a2728" stroke-width="5.146" vectornator:layerName="&#x41a;&#x440;&#x438;&#x432;&#x430;&#x44f; 41"/>
                <path d="M592.323 492.148c-.134-.829.863-.704 1.468-.802" fill="none" stroke="#3a2728" stroke-width="5.146" vectornator:layerName="&#x41a;&#x440;&#x438;&#x432;&#x430;&#x44f; 42"/>
                <path d="M595.27 490.026c-2.464-.144-4.791.774-7.192 1.163" fill="none" stroke="#3a2728" stroke-width="5.146" vectornator:layerName="&#x41a;&#x440;&#x438;&#x432;&#x430;&#x44f; 43"/>
                <path d="M592.923 489.465c-2.926-1.829-7.318-.575-10.572-2.005" fill="none" stroke="#3a2728" stroke-width="5.146" vectornator:layerName="&#x41a;&#x440;&#x438;&#x432;&#x430;&#x44f; 44"/>
                <path d="M578.432 483.863c1.861-1.728 6.64-1.15 9.009-1.268" fill="none" stroke="#3a2728" stroke-width="5.146" vectornator:layerName="&#x41a;&#x440;&#x438;&#x432;&#x430;&#x44f; 45"/>
                <path d="M587.288 481.068c-2.54-.413-5.313.813-7.878.992" fill="none" stroke="#3a2728" stroke-width="5.146" vectornator:layerName="&#x41a;&#x440;&#x438;&#x432;&#x430;&#x44f; 46"/>
                <path d="M580.005 480.506c4.36-1.57 8.992-.56 13.472-1.284" fill="none" stroke="#3a2728" stroke-width="5.146" vectornator:layerName="&#x41a;&#x440;&#x438;&#x432;&#x430;&#x44f; 47"/>
                <path d="M595.678 478.302c-6.244-1.492-13.117-.827-1.457 0" fill="none" stroke="#3a2728" stroke-width="5.146" vectornator:layerName="&#x41a;&#x440;&#x438;&#x432;&#x430;&#x44f; 48"/>
                <path d="M602.799 479.313c.457-.239-9.903.183-9.888.188" fill="none" stroke="#3a2728" stroke-width="5.146" vectornator:layerName="&#x41a;&#x440;&#x438;&#x432;&#x430;&#x44f; 49"/>
                <path d="M602.823 480.625c-2.09-.01-11.479.866-10.312 1.056" fill="none" stroke="#3a2728" stroke-width="5.146" vectornator:layerName="&#x41a;&#x440;&#x438;&#x432;&#x430;&#x44f; 50"/>
                <path d="M603.192 483.198c-2.181-.198-11.065.964-9.755 1.013" fill="none" stroke="#3a2728" stroke-width="5.146" vectornator:layerName="&#x41a;&#x440;&#x438;&#x432;&#x430;&#x44f; 51"/>
                <path d="M600.725 485.383c-1.654-.104-14.77 1-9.678.907" fill="none" stroke="#3a2728" stroke-width="5.146" vectornator:layerName="&#x41a;&#x440;&#x438;&#x432;&#x430;&#x44f; 52"/>
                <path d="M596.991 487.585c-4.393-.1-8.74-.074-13.104-.514" fill="none" stroke="#3a2728" stroke-width="5.146" vectornator:layerName="&#x41a;&#x440;&#x438;&#x432;&#x430;&#x44f; 53"/>
                <path d="M593.103 483.889c-3.5-.061-6.91.553-10.351 1.109" fill="none" stroke="#3a2728" stroke-width="5.146" vectornator:layerName="&#x41a;&#x440;&#x438;&#x432;&#x430;&#x44f; 54"/>
                <path d="M593.256 472.089c-.207-.771-5.316-.196-6.046-.183" fill="none" stroke="#3a2728" stroke-width="5.146" vectornator:layerName="&#x41a;&#x440;&#x438;&#x432;&#x430;&#x44f; 5"/>
                <path d="M580.72 480.047c.207-.771 5.316-.196 6.045-.183" fill="none" stroke="#3a2728" stroke-width="5.146" vectornator:layerName="&#x41a;&#x440;&#x438;&#x432;&#x430;&#x44f; 3"/>
                <path d="M594.289 470.023c-4.193-.907-7.735-1.156-11.763.41" fill="none" stroke="#3a2728" stroke-width="5.146" vectornator:layerName="&#x41a;&#x440;&#x438;&#x432;&#x430;&#x44f; 55"/>
                <path d="M589.843 469.955c-2.605-.217-6.424-.669-8.856.547" fill="none" stroke="#3a2728" stroke-width="5.146" vectornator:layerName="&#x41a;&#x440;&#x438;&#x432;&#x430;&#x44f; 56"/>
                <path d="M587.86 469.681c-2.153-.08-4.237.067-6.292.752" fill="none" stroke="#3a2728" stroke-width="5.146" vectornator:layerName="&#x41a;&#x440;&#x438;&#x432;&#x430;&#x44f; 57"/>
                <path d="M462.133 277.574c-.766 3.7.195 16.201 5.565 17.312" fill="none" stroke="#3a2728" stroke-width="5.146" vectornator:layerName="&#x41a;&#x440;&#x438;&#x432;&#x430;&#x44f; 58"/>
                <path d="M457.078 297.883c-.901 4.359 5.978 7.631 9.138 8.285" fill="none" stroke="#3a2728" stroke-width="5.146" vectornator:layerName="&#x41a;&#x440;&#x438;&#x432;&#x430;&#x44f; 59"/>
                <path d="M460.157 319.72c1.077.223 3.168-.382 3.974.085" fill="none" stroke="#3a2728" stroke-width="5.146" vectornator:layerName="&#x41a;&#x440;&#x438;&#x432;&#x430;&#x44f; 60"/>
                <path d="M712.497 278.427c-2.194 6.303.76 11.57-4.946 17.127" fill="none" stroke="#3a2728" stroke-width="5.146" vectornator:layerName="&#x41a;&#x440;&#x438;&#x432;&#x430;&#x44f; 61"/>
                <path d="M707.631 306.207c5.02-.649 6.695-3.622 9.422-7.16" fill="none" stroke="#3a2728" stroke-width="5.146" vectornator:layerName="&#x41a;&#x440;&#x438;&#x432;&#x430;&#x44f; 62"/>
                <path d="M709.927 320.312c1.579-.204 3.612.576 5.085-.539" fill="none" stroke="#3a2728" stroke-width="5.146" vectornator:layerName="&#x41a;&#x440;&#x438;&#x432;&#x430;&#x44f; 63"/>
                <path d="m559.802 296.941 11.571-89.288s-31.622-22.665-19.751-39.602c11.871-16.936 38.463-17.253 45.269-10.605" fill="none" stroke="#3a2728" stroke-linecap="butt" stroke-width="5.146" vectornator:layerName="&#x41a;&#x440;&#x438;&#x432;&#x430;&#x44f; 66"/>
                <path d="M559.904 296.021s28.868 28.929 90.365 14.396" fill="none" stroke="#3a2728" stroke-linecap="butt" stroke-width="5.146" vectornator:layerName="&#x41a;&#x440;&#x438;&#x432;&#x430;&#x44f; 67"/>
                <path d="m649.767 311.49 13.652-87.297s29.704-2.442 31.972-27.916c2.269-25.474-36.474-28.125-39.776-25.607" fill="none" stroke="#3a2728" stroke-linecap="butt" stroke-width="5.146" vectornator:layerName="&#x41a;&#x440;&#x438;&#x432;&#x430;&#x44f; 74"/>
                <path d="M657.034 171.17s-21.394-37.22-59.576-12.381" fill="none" stroke="#3a2728" stroke-linecap="butt" stroke-width="5.146" vectornator:layerName="&#x41a;&#x440;&#x438;&#x432;&#x430;&#x44f; 69"/>
                <path d="M597.846 157.788c-.385.243-.414 1.034-.66 1.44" fill="none" stroke="#3a2728" stroke-width="5.146" vectornator:layerName="&#x41a;&#x440;&#x438;&#x432;&#x430;&#x44f; 70"/>
                <path d="m656.844 170.374-.018.014a.036.036 0 0 0-.014.029V170.56l-.024.048v.041h0c-.009.017-.031.025-.048.016h0l-.025-.032-.02-.021a.033.033 0 0 0-.043-.002l-.009.007" fill="none" stroke="#3a2728" stroke-width="5.146" vectornator:layerName="&#x41a;&#x440;&#x438;&#x432;&#x430;&#x44f; 71"/>
                <path d="M587.906 192.927c1.971 1.934 3.531 4.717 4.93 7.111" fill="none" stroke="#3a2728" stroke-width="5.146" vectornator:layerName="&#x41a;&#x440;&#x438;&#x432;&#x430;&#x44f; 72"/>
                <path d="M645.936 202.432c-2.131.02-7.371 3.054-8.392 5.145" fill="none" stroke="#3a2728" stroke-width="5.146" vectornator:layerName="&#x41a;&#x440;&#x438;&#x432;&#x430;&#x44f; 73"/>
                <path d="M649.706 310.437c.085-.697.397.093.433.097" fill="none" stroke="#3a2728" stroke-width="5.146" vectornator:layerName="&#x41a;&#x440;&#x438;&#x432;&#x430;&#x44f; 75"/>
                <g vectornator:layerName="&#x413;&#x440;&#x443;&#x43f;&#x43f;&#x430; 4">
                    <path d="M533.009 512.762s13.753 14.57 26.892 12.391c13.14-2.179 24.427-8.433 25.519-17.422 1.091-8.989-8.794-6.902-10.235-13.591-1.441-6.688-11.702-3.235-11.461-10.943.241-7.709 12.896-12.127 15.348-13.212 2.453-1.085-4.553-10.138-5.39-18.842-.837-8.705 9.923-77.606 11.699-84.777 1.776-7.17 5.371 9.873 7.483 25.183 2.113 15.309 8.377 49.373 7.697 57.755-.68 8.381-7.203 17.743-6.478 22.965" fill="none" stroke="#3a2728" stroke-linecap="butt" stroke-width="5.146" vectornator:layerName="&#x41a;&#x440;&#x438;&#x432;&#x430;&#x44f; 4"/>
                    <path d="M641.624 512.762s-13.752 14.57-26.892 12.391c-13.139-2.179-24.427-8.433-25.519-17.422-1.091-8.989 8.794-6.902 10.235-13.591 1.441-6.688 11.702-3.235 11.461-10.943-.241-7.709-12.896-12.127-15.348-13.212-2.452-1.085 4.553-10.138 5.39-18.842.837-8.705-9.922-77.606-11.699-84.777-1.776-7.17-5.371 9.873-7.483 25.183-2.113 15.309-8.377 49.373-7.697 57.755.68 8.381 7.203 17.743 6.478 22.965" fill="none" stroke="#3a2728" stroke-width="5.146" vectornator:layerName="&#x41a;&#x440;&#x438;&#x432;&#x430;&#x44f; 2"/>
                    <g vectornator:layerName="&#x413;&#x440;&#x443;&#x43f;&#x43f;&#x430; 3">
                        <path d="M622.448 418.316c5.492-8.816 22.147-10.952 35.033-2.924 12.885 8.028 17.123 23.178 11.63 31.994-5.492 8.817-20.39 9.456-33.276 1.428-12.886-8.028-18.879-21.682-13.387-30.498Z" fill="#faefee" vectornator:layerName="&#x41e;&#x432;&#x430;&#x43b; 1"/>
                        <path d="M624.772 419.309c4.973-7.982 20.303-9.759 32.262-2.309s16.019 21.307 11.046 29.29c-4.973 7.982-18.699 8.413-30.658.963-11.959-7.451-17.623-19.962-12.65-27.944Z" vectornator:layerName="&#x41e;&#x432;&#x430;&#x43b; 4"/>
                        <path d="M630.921 425.247a5.083 5.083 0 1 1 10.167 0 5.083 5.083 0 0 1-10.167 0Z" fill="#fff" vectornator:layerName="&#x41e;&#x432;&#x430;&#x43b; 2"/>
                        <path d="M656.643 441.391a3.634 3.634 0 1 1 7.268 0 3.634 3.634 0 0 1-7.268 0Z" fill="#fff" vectornator:layerName="&#x41e;&#x432;&#x430;&#x43b; 3"/>
                    </g>
                    <g vectornator:layerName="&#x413;&#x440;&#x443;&#x43f;&#x43f;&#x430; 2">
                        <path d="M550.922 418.316c-5.492-8.816-22.146-10.952-35.032-2.924-12.886 8.028-17.123 23.178-11.631 31.994 5.493 8.817 20.391 9.456 33.277 1.428 12.885-8.028 18.879-21.682 13.386-30.498Z" fill="#faefee" vectornator:layerName="&#x41e;&#x432;&#x430;&#x43b; 1"/>
                        <path d="M548.599 419.309c-4.973-7.982-20.303-9.759-32.262-2.309s-16.02 21.307-11.047 29.29c4.973 7.982 18.699 8.413 30.659.963 11.959-7.451 17.622-19.962 12.65-27.944Z" vectornator:layerName="&#x41e;&#x432;&#x430;&#x43b; 4"/>
                        <path d="M542.449 425.247a5.083 5.083 0 1 0-10.165 0 5.083 5.083 0 0 0 10.165 0Z" fill="#fff" vectornator:layerName="&#x41e;&#x432;&#x430;&#x43b; 2"/>
                        <path d="M516.728 441.391a3.635 3.635 0 1 0-7.27.002 3.635 3.635 0 0 0 7.27-.002Z" fill="#fff" vectornator:layerName="&#x41e;&#x432;&#x430;&#x43b; 3"/>
                    </g>
                </g>
            </g>
        </g>
    </g>
</g></symbol><symbol id="restmap"><g fill="none">
    <g class="scene__dance-floor">
        <path d="M462 82.5c0 38.936-31.564 70.5-70.5 70.5S321 121.436 321 82.5 352.564 12 391.5 12 462 43.564 462 82.5Z" fill="#1F1E1E"/>
        <path d="M362.453 89h-1.867v-9.82h-3.359v-1.602h8.585v1.602h-3.359V89Zm10.328 0-.367-1.203h-.062c-.417.526-.836.885-1.258 1.078-.422.188-.964.281-1.625.281-.849 0-1.513-.229-1.992-.687-.474-.459-.711-1.107-.711-1.946 0-.89.33-1.562.992-2.015.661-.453 1.669-.7 3.023-.742l1.492-.047v-.461c0-.552-.13-.964-.39-1.235-.255-.276-.654-.414-1.195-.414-.443 0-.868.066-1.274.196s-.797.283-1.172.46l-.594-1.312c.469-.245.982-.43 1.54-.555a6.944 6.944 0 0 1 1.578-.195c1.099 0 1.927.24 2.484.719.562.479.844 1.232.844 2.258V89h-1.313Zm-2.734-1.25c.667 0 1.2-.185 1.601-.555.407-.375.61-.898.61-1.57v-.75l-1.11.047c-.864.031-1.494.177-1.89.437-.391.256-.586.649-.586 1.18 0 .385.114.685.344.898.229.209.573.313 1.031.313Zm8.445-7.39v3.468h4.07V80.36h1.836V89h-1.836v-3.727h-4.07V89h-1.836v-8.64h1.836Zm16.235 7.218h1.25v4.461h-1.727V89h-7.219v-8.64h1.836v7.187h4.024v-7.188h1.836v7.22Zm10.375-7.219V89h-1.844v-7.188h-3.875V89h-1.836v-8.64h7.555Zm10.296 4.305c0 1.412-.362 2.513-1.086 3.305-.723.791-1.731 1.187-3.023 1.187-.807 0-1.521-.182-2.141-.547a3.612 3.612 0 0 1-1.429-1.57c-.334-.682-.5-1.474-.5-2.375 0-1.401.359-2.495 1.078-3.281.719-.787 1.732-1.18 3.039-1.18 1.25 0 2.24.404 2.969 1.211.729.802 1.093 1.885 1.093 3.25Zm-6.289 0c0 1.995.737 2.992 2.211 2.992 1.459 0 2.188-.997 2.188-2.992 0-1.974-.735-2.96-2.203-2.96-.771 0-1.331.254-1.68.765-.344.51-.516 1.242-.516 2.195ZM424.617 89h-1.851v-7.203h-2.383c-.146 1.854-.344 3.302-.594 4.344-.245 1.041-.568 1.802-.969 2.28-.396.48-.911.72-1.547.72-.401 0-.737-.058-1.007-.172V87.53c.192.073.385.11.578.11.531 0 .948-.597 1.25-1.79.307-1.197.547-3.028.718-5.492h5.805V89Z" fill="#fff"/>
    </g>
    <g class="scene__table scene__table--red">
        <g class="scene__table-group" stroke="#BC3324">
            <path d="M507.5 35.5h83v28h-83z"/>
            <circle cx="527" cy="20" r="11.5"/>
            <circle cx="570" cy="20" r="11.5"/>
            <circle cx="606" cy="48" r="11.5"/>
            <circle cx="570" cy="79" r="11.5"/>
            <circle cx="527" cy="79" r="11.5"/>
        </g>
        <path class="scene__table-num" d="M552.199 56h-3.916v-7.773c0-.352.003-.74.01-1.162.013-.424.029-.805.049-1.143a6.41 6.41 0 0 1-.479.518c-.143.143-.283.276-.42.4l-1.621 1.338-2.002-2.461 4.903-3.994h3.476V56Z" fill="#BC3324"/>
        <path fill="transparent" d="M507 8h111v83H507z"/>
    </g>
    <g class="scene__table">
        <g class="scene__table-group" stroke="#1F1E1E">
            <path d="M712.5 4.5h40v93h-40z"/>
            <circle cx="697" cy="16" r="11.5"/>
            <circle cx="768" cy="17" r="11.5"/>
            <circle cx="697" cy="49" r="11.5"/>
            <circle cx="768" cy="50" r="11.5"/>
            <circle cx="697" cy="82" r="11.5"/>
            <circle cx="768" cy="83" r="11.5"/>
            <circle cx="733" cy="113" r="11.5"/>
        </g>
        <path class="scene__table-num" d="M737.957 60h-10.361v-2.54l3.486-3.525c.996-1.041 1.647-1.75 1.953-2.128.306-.385.518-.713.635-.987.124-.273.185-.56.185-.86 0-.37-.12-.663-.361-.878-.241-.215-.579-.322-1.015-.322-.45 0-.905.13-1.368.39-.455.254-.973.632-1.552 1.133l-2.12-2.48c.736-.658 1.355-1.127 1.856-1.406a6.519 6.519 0 0 1 1.631-.655 8.132 8.132 0 0 1 1.992-.224c.924 0 1.748.162 2.471.488.729.325 1.292.79 1.689 1.396.404.6.606 1.273.606 2.022 0 .56-.072 1.077-.215 1.553a5.443 5.443 0 0 1-.645 1.406 9.645 9.645 0 0 1-1.172 1.445c-.481.508-1.513 1.471-3.095 2.89v.098h5.4V60Z" fill="#1F1E1E"/>
        <path fill="transparent" d="M685 4h95v121h-95z"/>
    </g>
    <g class="scene__table">
        <g class="scene__table-group" stroke="#1F1E1E">
            <path d="M712.5 185.5h40v93h-40z"/>
            <circle cx="697" cy="197" r="11.5"/>
            <circle cx="768" cy="198" r="11.5"/>
            <circle cx="697" cy="230" r="11.5"/>
            <circle cx="768" cy="231" r="11.5"/>
            <circle cx="697" cy="263" r="11.5"/>
            <circle cx="768" cy="264" r="11.5"/>
            <circle cx="733" cy="294" r="11.5"/>
        </g>
        <path class="scene__table-num" d="M737.479 229.818c0 .886-.271 1.647-.811 2.286-.54.631-1.322 1.09-2.344 1.376v.059c2.383.3 3.574 1.426 3.574 3.379 0 1.328-.527 2.373-1.582 3.135-1.048.761-2.506 1.142-4.375 1.142a12.86 12.86 0 0 1-2.138-.166 11.1 11.1 0 0 1-2.119-.605v-3.203a8.709 8.709 0 0 0 1.904.713c.651.149 1.25.224 1.797.224.846 0 1.461-.117 1.845-.351.391-.241.586-.616.586-1.123 0-.391-.101-.691-.302-.899-.202-.215-.528-.374-.977-.478-.449-.111-1.035-.166-1.758-.166h-.879v-2.901h.899c1.959 0 2.939-.501 2.939-1.504 0-.377-.146-.657-.439-.84-.287-.182-.674-.273-1.162-.273-.912 0-1.856.306-2.832.918l-1.602-2.578a7.773 7.773 0 0 1 2.315-1.113c.794-.222 1.702-.332 2.724-.332 1.478 0 2.637.293 3.477.878.84.586 1.26 1.394 1.26 2.422Z" fill="#1F1E1E"/>
        <path fill="transparent" d="M685 185h95v121h-95z"/>
    </g>
    <g class="scene__table scene__table--red">
        <g class="scene__table-group" stroke="#BC3324">
            <path d="M507.5 182.5h83v28h-83z"/>
            <circle cx="527" cy="167" r="11.5"/>
            <circle cx="570" cy="167" r="11.5"/>
            <circle cx="606" cy="195" r="11.5"/>
            <circle cx="570" cy="226" r="11.5"/>
            <circle cx="527" cy="226" r="11.5"/>
        </g>
        <path class="scene__table-num" d="M554.416 199.236h-1.572V202h-3.809v-2.764h-5.693v-2.832l5.937-8.681h3.565v8.632h1.572v2.881Zm-5.381-2.881v-1.66c0-.312.01-.732.029-1.259.026-.534.046-.814.059-.84h-.107c-.222.501-.472.97-.752 1.406l-1.582 2.353h2.353Z" fill="#BC3324"/>
        <path fill="transparent" d="M507 155h111v83H507z"/>
    </g>
    <g class="scene__table">
        <g class="scene__table-group" stroke="#1F1E1E">
            <path d="M494.5 278.5h40v93h-40z"/>
            <circle cx="479" cy="290" r="11.5"/>
            <circle cx="550" cy="291" r="11.5"/>
            <circle cx="479" cy="323" r="11.5"/>
            <circle cx="550" cy="324" r="11.5"/>
            <circle cx="479" cy="356" r="11.5"/>
            <circle cx="550" cy="357" r="11.5"/>
            <circle cx="515" cy="387" r="11.5"/>
        </g>
        <path class="scene__table-num" d="M515.484 322.645c.821 0 1.56.192 2.217.576a3.869 3.869 0 0 1 1.543 1.611c.371.697.557 1.501.557 2.412 0 1.595-.482 2.819-1.446 3.672-.957.853-2.408 1.279-4.355 1.279-1.667 0-3.027-.257-4.082-.771v-3.164c.566.26 1.204.475 1.914.644.716.17 1.331.254 1.846.254.716 0 1.266-.15 1.65-.449.384-.306.576-.755.576-1.348 0-.547-.195-.973-.586-1.279-.39-.306-.983-.459-1.777-.459-.605 0-1.26.114-1.963.342l-1.416-.703.537-7.539h8.145v3.213h-4.864l-.175 1.884c.507-.097.869-.149 1.084-.156.215-.013.413-.019.595-.019Z" fill="#1F1E1E"/>
        <path fill="transparent" d="M467 278h95v121h-95z"/>
    </g>
    <g class="scene__table">
        <g class="scene__table-group" stroke="#1F1E1E">
            <path d="M273.5 278.5h40v93h-40z"/>
            <circle cx="258" cy="290" r="11.5"/>
            <circle cx="329" cy="291" r="11.5"/>
            <circle cx="258" cy="323" r="11.5"/>
            <circle cx="329" cy="324" r="11.5"/>
            <circle cx="258" cy="356" r="11.5"/>
            <circle cx="329" cy="357" r="11.5"/>
            <circle cx="294" cy="387" r="11.5"/>
        </g>
        <path class="scene__table-num" d="M288.684 326.965c0-1.992.283-3.604.849-4.834.573-1.237 1.413-2.149 2.52-2.735 1.113-.585 2.483-.878 4.111-.878.579 0 1.257.055 2.031.166v3.017a11.335 11.335 0 0 0-2.119-.185c-1.289 0-2.249.283-2.881.849-.631.567-.976 1.491-1.035 2.774h.117c.586-1.107 1.527-1.66 2.823-1.66 1.269 0 2.252.41 2.949 1.23.703.814 1.055 1.95 1.055 3.408 0 1.569-.443 2.809-1.329 3.721-.885.905-2.122 1.357-3.711 1.357-1.686 0-3.004-.547-3.955-1.64-.95-1.094-1.425-2.624-1.425-4.59Zm5.293 3.174c.41 0 .742-.153.996-.459.26-.313.39-.808.39-1.485 0-1.159-.449-1.738-1.347-1.738-.443 0-.804.15-1.084.449-.274.3-.411.664-.411 1.094 0 .625.134 1.139.401 1.543.267.397.618.596 1.055.596Z" fill="#1F1E1E"/>
        <path opacity=".01" fill="transparent" d="M246 278h95v121h-95z"/>
    </g>
    <g class="scene__table scene__table--red">
        <g class="scene__table-group" stroke="#BC3324">
            <path d="M320.5 183.5h83v28h-83z"/>
            <circle cx="383" cy="227" r="11.5"/>
            <circle cx="419" cy="197" r="11.5"/>
            <circle cx="305" cy="197" r="11.5"/>
            <circle cx="340" cy="227" r="11.5"/>
        </g>
        <path class="scene__table-num" d="m358.041 204 4.902-11.084h-6.181v-3.193h10.302v2.275L362.035 204h-3.994Z" fill="#BC3324"/>
        <path fill="transparent" d="M293 183h138v56H293z"/>
    </g>
    <g class="scene__table scene__table--red">
        <g class="scene__table-group" stroke="#BC3324">
            <path d="M187.5 169.5h61v36h-61z"/>
            <circle cx="216" cy="221" r="11.5" transform="rotate(-180 216 221)"/>
            <circle cx="171" cy="185" r="11.5" transform="rotate(-180 171 185)"/>
            <circle cx="216" cy="154" r="11.5" transform="rotate(-180 216 154)"/>
        </g>
        <path class="scene__table-num" d="M215.898 180.518c.944 0 1.771.127 2.481.38.716.254 1.276.642 1.68 1.163.403.514.605 1.162.605 1.943 0 .573-.107 1.077-.322 1.514a3.575 3.575 0 0 1-.869 1.132 5.698 5.698 0 0 1-1.27.83c.449.254.895.551 1.338.889.443.339.811.739 1.104 1.201.293.456.439 1 .439 1.631 0 .762-.186 1.445-.557 2.051-.371.599-.94 1.074-1.709 1.426-.768.345-1.754.517-2.959.517-1.204 0-2.19-.166-2.959-.498-.768-.332-1.334-.794-1.699-1.386-.358-.599-.537-1.29-.537-2.071 0-.664.111-1.224.332-1.679.228-.456.537-.844.928-1.163a7.33 7.33 0 0 1 1.338-.859 7.026 7.026 0 0 1-1.094-.908 3.956 3.956 0 0 1-.791-1.162 3.601 3.601 0 0 1-.293-1.485c0-.768.205-1.409.615-1.923.41-.515.977-.899 1.699-1.153.73-.26 1.563-.39 2.5-.39Zm-1.699 10.566c0 .397.143.719.43.967.286.247.683.371 1.191.371.593 0 1.026-.111 1.299-.332.28-.228.42-.537.42-.928 0-.293-.088-.557-.264-.791a2.851 2.851 0 0 0-.595-.625 5.613 5.613 0 0 0-.596-.41l-.264-.156a5.234 5.234 0 0 0-.81.508c-.241.182-.436.39-.586.624-.15.228-.225.486-.225.772Zm1.68-7.783a1.28 1.28 0 0 0-.83.283c-.235.182-.352.433-.352.752 0 .208.049.404.147.586.104.176.241.338.41.488.176.15.371.287.586.41a7.12 7.12 0 0 0 .556-.361 1.81 1.81 0 0 0 .459-.469c.124-.182.186-.4.186-.654 0-.319-.117-.57-.352-.752a1.227 1.227 0 0 0-.81-.283Z" fill="#BC3324"/>
        <path fill="transparent" d="M159 142h90v91h-90z"/>
    </g>
    <g class="scene__table scene__table--red">
        <g class="scene__table-group" stroke="#BC3324">
            <path d="M222.5 27.5h61v36h-61z"/>
            <circle cx="251" cy="79" r="11.5" transform="rotate(-180 251 79)"/>
            <circle cx="206" cy="43" r="11.5" transform="rotate(-180 206 43)"/>
            <circle cx="251" cy="12" r="11.5" transform="rotate(-180 251 12)"/>
        </g>
        <path class="scene__table-num" d="M256.064 45.256c0 2.793-.602 4.814-1.806 6.064-1.205 1.25-3.132 1.875-5.781 1.875-.873 0-1.537-.032-1.993-.097V50.04c.56.104 1.12.156 1.68.156 1.38 0 2.445-.283 3.193-.85.749-.572 1.156-1.474 1.221-2.704h-.117c-.254.468-.505.807-.752 1.015-.247.209-.55.368-.908.479-.358.11-.804.166-1.338.166-1.237 0-2.204-.414-2.901-1.24-.696-.827-1.044-1.967-1.044-3.419 0-1.581.449-2.822 1.347-3.72.905-.899 2.142-1.348 3.711-1.348 1.745 0 3.096.58 4.053 1.739.957 1.158 1.435 2.805 1.435 4.94Zm-5.38-3.594a1.31 1.31 0 0 0-1.036.46c-.26.305-.39.797-.39 1.474 0 .534.114.96.342 1.279.227.313.576.469 1.045.469.423 0 .791-.153 1.103-.46.313-.305.469-.673.469-1.103 0-.58-.147-1.077-.44-1.494-.286-.417-.651-.625-1.093-.625Z" fill="#BC3324"/>
        <path fill="transparent" d="M194 0h90v91h-90z"/>
    </g>
    <g class="scene__table">
        <g class="scene__table-group" stroke="#1F1E1E">
            <path d="M110.5 65V.5h31v92h-126v-27h95V65Z"/>
            <circle cx="27" cy="50" r="11.5"/>
            <circle cx="61" cy="50" r="11.5"/>
            <circle cx="94" cy="50" r="11.5"/>
            <circle cx="94" cy="16" r="11.5"/>
        </g>
        <path class="scene__table-num" d="M121.199 85h-3.916v-7.773c0-.352.003-.74.01-1.163.013-.423.029-.804.049-1.142a6.41 6.41 0 0 1-.479.517c-.143.144-.283.277-.42.4l-1.621 1.339-2.002-2.461 4.903-3.994h3.476V85Zm13.535-7.12c0 1.147-.091 2.172-.273 3.077-.182.899-.475 1.663-.879 2.295A3.929 3.929 0 0 1 132 84.697c-.658.332-1.465.498-2.422.498-1.191 0-2.168-.29-2.93-.869-.761-.586-1.324-1.422-1.689-2.51-.358-1.093-.537-2.405-.537-3.935 0-1.543.163-2.862.488-3.955.332-1.1.876-1.944 1.631-2.53.755-.585 1.768-.878 3.037-.878 1.192 0 2.165.293 2.92.879.762.579 1.325 1.419 1.69 2.519.364 1.094.546 2.415.546 3.965Zm-6.474 0c0 .932.032 1.713.097 2.345.072.631.202 1.106.391 1.425.195.313.472.47.83.47a.903.903 0 0 0 .82-.47c.189-.319.319-.79.391-1.416.072-.631.107-1.416.107-2.353 0-.944-.035-1.732-.107-2.363-.072-.632-.202-1.107-.391-1.426-.188-.326-.462-.489-.82-.489-.358 0-.635.163-.83.489-.189.319-.319.794-.391 1.426-.065.631-.097 1.419-.097 2.363Z" fill="#1F1E1E"/>
        <path fill="transparent" d="M15 0h127v93H15z"/>
    </g>
    <g class="scene__table">
        <g class="scene__table-group" stroke="#1F1E1E">
            <path d="M27.5 185.5h40v93h-40z"/>
            <circle cx="12" cy="197" r="11.5"/>
            <circle cx="83" cy="198" r="11.5"/>
            <circle cx="12" cy="230" r="11.5"/>
            <circle cx="83" cy="231" r="11.5"/>
            <circle cx="12" cy="263" r="11.5"/>
            <circle cx="83" cy="264" r="11.5"/>
            <circle cx="48" cy="294" r="11.5"/>
        </g>
        <path class="scene__table-num" d="M45.2 241h-3.917v-7.559c0-.918.02-1.757.059-2.519-.241.293-.54.599-.899.918l-1.62 1.338-2.003-2.461 4.903-3.994h3.476V241Zm11.718 0h-3.916v-7.559c0-.918.02-1.757.058-2.519a8.36 8.36 0 0 1-.898.918l-1.621 1.338-2.002-2.461 4.902-3.994h3.477V241Z" fill="#1F1E1E"/>
        <path opacity=".01" fill="transparent" d="M0 185h95v121H0z"/>
    </g>
</g></symbol><symbol id="star" viewBox="0 0 24 24"><g fill="none">
    <path d="M21.663 8.772a1 1 0 0 1 .33.462 1 1 0 0 1-.32 1.02l-4.13 4 1 5.68a1 1 0 0 1-.99 1.19.93.93 0 0 1-.46-.12l-5.1-2.68-5.12 2.67a1 1 0 0 1-1.45-1.07l1-5.68-4.13-4a1 1 0 0 1-.25-1 1 1 0 0 1 .81-.68l5.69-.84 2.55-5.16a1 1 0 0 1 1.8 0l2.55 5.17 5.69.83a1 1 0 0 1 .53.208Z" fill="currentColor"/>
</g></symbol><symbol id="tagree" viewBox="0 0 57 17"><g fill="none">
    <path d="M6.301 12.695H4.107a3.15 3.15 0 0 1-1.276-.262 3.309 3.309 0 0 1-1.037-.704 3.6 3.6 0 0 1-.698-1.066 3.227 3.227 0 0 1-.26-1.288V.604L3.23 0v3.843h1.396l.598 2.414H3.23v3.118c0 .255.086.47.26.644a.84.84 0 0 0 .617.261h1.596l.598 2.415ZM16.7 2.615v10.08h-2.393v-5.03c0-.805-.28-1.489-.838-2.052a2.757 2.757 0 0 0-2.034-.845 2.91 2.91 0 0 0-1.117.221 2.862 2.862 0 0 0-.917.624 2.806 2.806 0 0 0-.837 2.052c0 .791.279 1.469.837 2.032.266.282.572.496.918.644.358.134.73.201 1.116.201.4 0 .758-.067 1.077-.201l.858 2.152c-.612.309-1.323.463-2.134.463a5.1 5.1 0 0 1-2.034-.402 5.065 5.065 0 0 1-1.596-1.147 5.253 5.253 0 0 1-1.057-1.69 5.568 5.568 0 0 1-.378-2.052c0-.738.126-1.428.378-2.072a5.252 5.252 0 0 1 1.057-1.69 4.807 4.807 0 0 1 1.596-1.127 4.892 4.892 0 0 1 2.034-.422c.651 0 1.23.1 1.735.302.505.2.95.456 1.336.764v-.805H16.7ZM28.326 11.689c0 .724-.14 1.408-.419 2.052a5.188 5.188 0 0 1-1.116 1.69 5.41 5.41 0 0 1-1.675 1.147 5.03 5.03 0 0 1-2.054.422 5.053 5.053 0 0 1-1.696-.282 5.279 5.279 0 0 1-1.475-.804l1.735-1.73c.425.268.904.402 1.436.402.81 0 1.488-.289 2.034-.865.558-.564.837-1.24.837-2.032V7.645c0-.778-.279-1.462-.837-2.052a2.757 2.757 0 0 0-2.034-.845c-.771 0-1.45.282-2.035.845-.558.59-.837 1.274-.837 2.052 0 .805.28 1.489.837 2.052.585.563 1.264.845 2.035.845.398 0 .757-.067 1.076-.201l.898 2.253a5.12 5.12 0 0 1-1.935.362h-.04a5.194 5.194 0 0 1-2.034-.402 5.41 5.41 0 0 1-2.811-2.837 5.151 5.151 0 0 1-.42-2.072 5.9 5.9 0 0 1 .36-2.072c.24-.644.572-1.207.997-1.69a4.65 4.65 0 0 1 1.555-1.127 4.71 4.71 0 0 1 1.995-.422c.69 0 1.303.107 1.834.322.532.2.997.456 1.396.764v-.784h2.393v9.053ZM31.92 3.4a5.173 5.173 0 0 1 1.257-.764 4.132 4.132 0 0 1 1.615-.302v2.414c-.797 0-1.476.282-2.034.845-.558.59-.837 1.274-.837 2.052v5.05h-2.393V2.615h2.393V3.4ZM42.85 8.872h-5.224c.133.309.325.584.578.825.28.282.592.496.937.644.346.134.712.201 1.097.201.545 0 1.03-.127 1.456-.382l2.493 1.006a5.143 5.143 0 0 1-1.735 1.327 5.28 5.28 0 0 1-2.214.463 5.245 5.245 0 0 1-2.054-.402 5.41 5.41 0 0 1-2.812-2.837 5.322 5.322 0 0 1-.399-2.052c0-.738.133-1.428.4-2.072a5.462 5.462 0 0 1 1.136-1.69 5.136 5.136 0 0 1 1.675-1.127 5.03 5.03 0 0 1 2.054-.422c.731 0 1.416.14 2.054.422a5.136 5.136 0 0 1 1.675 1.127c.479.483.851 1.046 1.117 1.69.28.644.419 1.334.419 2.072 0 .43-.047.832-.14 1.207H42.85Zm-2.612-4.104c-.771 0-1.449.282-2.034.845a2.73 2.73 0 0 0-.578.845h5.224a2.732 2.732 0 0 0-.578-.845 2.757 2.757 0 0 0-2.034-.845ZM54.185 8.872H48.96c.133.309.326.584.578.825.28.282.592.496.937.644.346.134.712.201 1.097.201.545 0 1.03-.127 1.456-.382l2.493 1.006a5.143 5.143 0 0 1-1.735 1.327 5.281 5.281 0 0 1-2.214.463 5.245 5.245 0 0 1-2.054-.402 5.41 5.41 0 0 1-2.812-2.837 5.322 5.322 0 0 1-.398-2.052c0-.738.133-1.428.398-2.072a5.464 5.464 0 0 1 1.137-1.69 5.136 5.136 0 0 1 1.675-1.127 5.03 5.03 0 0 1 2.054-.422c.731 0 1.416.14 2.054.422a5.136 5.136 0 0 1 1.675 1.127c.479.483.851 1.046 1.117 1.69.28.644.419 1.334.419 2.072 0 .43-.047.832-.14 1.207h-2.512Zm-2.613-4.104c-.77 0-1.449.282-2.034.845a2.73 2.73 0 0 0-.578.845h5.225a2.73 2.73 0 0 0-.579-.845 2.757 2.757 0 0 0-2.034-.845Z" fill="currentColor"/>
</g></symbol><symbol id="user" viewBox="0 0 24 24"><g fill="none">
    <path d="M13.3 12.22A4.92 4.92 0 0 0 15 8.5a5 5 0 0 0-10 0 4.92 4.92 0 0 0 1.7 3.72A8 8 0 0 0 2 19.5a1 1 0 1 0 2 0 6 6 0 1 1 12 0 1 1 0 0 0 2 0 8 8 0 0 0-4.7-7.28ZM10 11.5a3 3 0 1 1 0-6 3 3 0 0 1 0 6Zm11.71-2.37a1 1 0 0 0-1.42 0l-2 2-.62-.63a1.002 1.002 0 0 0-1.71.705 1 1 0 0 0 .29.705l1.34 1.34a1 1 0 0 0 1.41 0l2.67-2.67a1 1 0 0 0 .04-1.45Z" fill="currentColor"/>
</g></symbol><symbol id="x" viewBox="0 0 24 24"><g fill="none">
    <path d="M18 6 6 18M6 6l12 12" stroke="currentColor" stroke-width="2" stroke-linecap="round" stroke-linejoin="round"/>
</g></symbol></svg>