<?xml version="1.0" encoding="UTF-8" standalone="no"?>
<!DOCTYPE svg PUBLIC "-//W3C//DTD SVG 1.1//EN" "http://www.w3.org/Graphics/SVG/1.1/DTD/svg11.dtd">
<!-- Created with Vectornator (http://vectornator.io/) -->
<svg  stroke-miterlimit="10" style="fill-rule:nonzero;clip-rule:evenodd;stroke-linecap:round;stroke-linejoin:round;" version="1.1" viewBox="0 0 1112 834" xml:space="preserve" xmlns="http://www.w3.org/2000/svg" xmlns:vectornator="http://vectornator.io" xmlns:xlink="http://www.w3.org/1999/xlink">
<defs/>
<g id="Слой-3" vectornator:layerName="Слой 3">
<g opacity="1" vectornator:layerName="Группа 6">
<g opacity="1" vectornator:layerName="Группа 4">
<g opacity="1" vectornator:layerName="Группа 3">
<g opacity="1" vectornator:layerName="Группа 2">
<g opacity="1" vectornator:layerName="Группа 1">
<path d="M445.125 254.719C445.03 254.712 440.112 260.362 439.656 261C434.926 267.622 434.681 276.748 433 284.312C431.063 293.027 433.933 303.561 435.156 312.125C437.089 325.651 437.107 339.415 438.469 353.031C438.856 356.902 438.581 360.927 439.062 364.781C439.585 368.964 440.783 373.455 440.25 377.719C439.881 380.674 439.25 383.742 439.25 386.719C439.25 387.303 439.391 388.125 439.25 388.688C439.185 388.949 438.793 389.469 439.062 389.469C439.427 389.469 439.036 388.436 439.656 388.281C439.906 388.219 440.155 388.279 440.406 388.25C440.279 388.603 440.086 389.219 439.969 389.5C438.888 392.099 437.111 394.546 436 397.219C433.296 403.723 431.529 410.738 429.531 417.5C428.167 422.117 425.954 426.665 424.625 431.406C422.893 437.583 421.832 443.811 420.031 449.906C419.445 451.892 417.98 453.527 417.406 455.469C416.175 459.635 414.237 463.624 412.688 467.719C411.469 470.94 411.734 474.456 410.719 477.656C408.643 484.199 407.358 492.109 407.688 498.906C408.062 506.637 417.14 515.943 422.094 521.219C424.812 524.114 427.556 527.169 430.719 529.625C434.923 532.89 440.196 534.929 444.75 537.719C451.385 541.783 457.673 546.463 464.844 549.625C471.01 552.344 477.292 554.689 483.031 558.25C484.62 559.236 486.543 559.303 488.094 560.188C504.431 569.506 523.68 572.009 541.281 577.594C545.004 578.775 548.846 580.229 552.688 580.75C555.173 581.435 557.795 581.705 560.344 582.625C563.81 583.876 567.515 583.958 571.125 584.5C577.613 585.474 583.717 585.893 590.281 585.719C612.896 585.119 635.89 579.323 657.031 571.75C660.844 570.384 664.952 569.833 668.719 568.406C675.492 565.84 682.167 563.127 688.938 560.562C693.259 558.925 698.388 557.446 702.344 555C706.979 552.134 711.44 549.123 716.219 546.438C720.336 544.124 727.583 540.494 731.219 535.625L735.812 535.375C736.726 535.375 737.187 534.594 737.75 534.031C738.964 532.818 740.908 532.024 742.25 530.906C744.088 529.375 745.697 527.529 747.531 526C757.711 517.517 766.651 505.179 764.906 491.219C763.664 481.283 760.507 470.887 757.094 461.5C756.074 458.695 754.635 455.97 753.781 453.125C748.009 433.884 740.775 415.043 734.438 396.031C732.896 391.406 733.1 385.468 734.031 380.812C734.558 378.179 733.976 375.378 734.625 372.781C735.687 368.533 733.751 363.557 734.812 359.312C736.768 351.491 735.639 342.852 736.969 334.875C737.838 329.659 737.659 324.265 738.531 319.031C739.672 312.185 740.497 305.108 739.5 298.125C738.941 294.211 739.57 290.171 737.938 286.781C738.665 284.781 739.143 282.654 739.344 280.938C739.806 276.98 738.158 271.625 737.094 267.844C736.349 265.196 734.676 263.052 732.781 261.188C731.503 259.93 730.593 258.172 728.938 257.312C724.439 254.977 717.859 256.215 713.125 256.531C708.677 256.829 701.507 260.346 697.469 262.406C695.567 263.376 693.363 263.799 691.438 264.781C688.502 266.279 686.021 268.492 683.125 269.969C681.167 270.968 678.951 271.747 677.062 272.938C673.638 275.095 670.473 278.195 667.281 280.719C664.495 282.922 660.627 283.081 657.812 285.062C656.548 285.953 657.241 288.992 657.094 290.25C656.798 292.778 656.828 295.663 656.344 298.188C655.866 300.678 654.644 302.9 654.469 305.438C654.358 307.051 656.338 311.962 655.344 313.156C654.848 313.752 654.356 306.488 654.188 305.375C654.162 305.203 653.811 303.122 653.5 303.125C652.919 303.13 652.565 306.106 652.438 306.5C651.306 309.989 651.22 312.106 647.875 313.812C644.77 315.396 637.281 314.506 633.594 315.062C625.57 316.275 617.452 315.206 609.469 314.656C603.639 314.255 597.612 314.604 591.844 313.25C586.265 311.941 580.55 309.691 575.406 307.281C571.978 305.675 568.268 304.698 564.844 303.094C562.287 301.896 560.473 299.701 557.406 299.906C556.391 299.974 555.536 300.503 554.812 301.188C554.663 301.196 554.569 301.136 554.406 301.156L553.031 302.125C544.23 295.582 534.284 291.121 523.469 288.031C518.867 286.716 513.154 286.042 508.969 283.531C507.266 282.509 505.46 281.367 504.094 280C502.471 278.377 501.802 276.066 499.781 274.719C497.274 273.047 494.515 272.254 491.938 270.781C490.119 269.742 489.508 267.983 488.031 266.875C486.546 265.761 483.171 265.205 481.375 264.906C479.299 264.56 477.362 263.306 475.5 262.375C472.469 260.86 468.281 257.469 464.906 257.094C460.222 256.573 455.558 256.853 451 256.094C448.577 255.69 446.933 257.09 445.906 255.625C445.681 255.303 445.517 254.747 445.125 254.719Z" fill="#86675c" fill-rule="nonzero" opacity="1" stroke="#86675c" stroke-linecap="round" stroke-linejoin="round" stroke-width="5.14577" vectornator:layerName="Кривая 4"/>
<path d="M598.81 162.702C599.246 162.032 597.299 160.602 596.909 159.902C596.43 159.043 596.365 157.971 595.736 157.184C594.561 155.71 590.101 155.25 588.38 155.247C584.885 155.242 579.913 154.366 576.56 155.21C567.883 157.396 553.916 164.235 551.739 173.848C551.108 176.635 552.506 178.422 553.534 180.885C554.724 183.74 555.667 186.295 557.435 188.899C558.905 191.063 561.277 192.095 563.166 193.793C565.141 195.569 566.73 197.807 568.611 199.579C570.3 201.17 574.717 204.127 574.846 206.562C575.137 212.039 573.613 217.535 573.363 223.022C573.14 227.919 572.728 232.634 571.741 237.434C570.822 241.906 568.133 245.941 567.324 250.424C566.28 256.204 565.725 262.091 564.623 267.855C563.022 276.234 561.529 285.031 562.661 293.499C563.1 296.781 568.292 296.299 570.542 297.342C571.407 297.742 572.068 298.649 572.932 299.089C574.173 299.72 575.594 299.675 576.884 300.088C578.741 300.682 581.82 301.627 583.429 302.672C584.046 303.072 584.533 303.584 585.13 303.972C585.5 304.212 586.093 305.263 586.143 304.825C586.301 303.419 579.247 301.832 578.179 301.712C577.458 301.63 576.836 301.657 576.131 301.851C575.868 301.923 575.112 302.018 575.361 302.133C577.186 302.979 579.631 302.955 581.44 303.926C584.49 305.563 586.406 307.774 589.969 308.581C591.597 308.949 593.303 308.79 594.936 308.77C599.333 308.716 603.818 310.037 608.295 309.904C610.662 309.833 612.885 311.295 615.186 311.049C617.48 310.803 619.659 309.85 621.98 309.781C622.926 309.753 623.614 310.53 624.452 310.798C626.665 311.506 629.395 311.17 631.628 311.052C636.078 310.815 640.559 308.51 644.912 307.928C647.991 307.516 647.676 304.561 648.144 302.195C649.06 297.563 649.013 292.828 649.542 288.127C651.38 271.797 654.5 255.564 656.342 239.195C656.854 234.645 656.713 230.118 657.861 225.695C658.07 224.891 657.815 222.244 658.495 221.702C659.294 221.065 663.964 221.27 665.247 220.799C669.703 219.165 673.75 215.532 678.071 213.559C680.418 212.487 683.293 209.891 685.316 208.278C685.866 207.839 686.312 207.113 686.798 206.597C687.035 206.345 687.649 205.606 687.61 205.95C687.47 207.189 678.819 212.63 677.3 213.842C676.767 214.267 674.535 215.428 674.458 216.109C674.419 216.455 677.888 214.203 678.009 214.106C679.709 212.75 681.512 211.95 683.042 210.424C683.814 209.654 685.336 208.095 685.336 208.095C685.336 208.095 683.577 209.499 682.698 210.2C680.994 211.559 679.375 212.969 677.785 214.451C677.437 214.776 674.489 216.67 674.559 216.859C674.706 217.262 677.498 215.458 677.683 215.363C680.42 213.952 683.074 211.004 684.91 208.602C689.498 202.596 691.341 197.611 690.694 190.039C690.472 187.447 689.74 184.264 688.069 182.169C687.03 180.867 685.147 179.979 683.796 179.102C681.359 177.52 679.095 175.104 676.22 174.185C672.126 172.876 666.747 171.948 662.417 172.077C659.453 172.166 655.005 174.773 652.237 173.887C650.631 173.374 651.502 171.218 651.188 170.075C650.545 167.739 646.962 164.132 645.218 162.382C641.858 159.014 633.291 154.888 628.646 153.682C627.064 153.271 625.307 153.391 623.741 152.945C621.424 152.286 618.974 151.58 616.505 151.577C613.864 151.573 611.244 153.795 608.938 154.79C605.081 156.452 600.895 158.051 597.556 160.714C595.027 162.731 592.657 165.383 589.823 167.049C587.792 168.243 584.31 166.792 584.576 164.426" fill="#e0cfcc" fill-rule="nonzero" opacity="1" stroke="#e0cfcc" stroke-linecap="round" stroke-linejoin="round" stroke-width="5.14577" vectornator:layerName="Кривая 2"/>
<path d="M581.317 160.549C585.082 158.336 588.765 158.209 592.895 159.45C595.397 160.202 598.175 161.786 600.208 163.414C603.997 166.449 607.166 174.968 602.356 178.805C600.215 180.513 597.432 181.242 594.81 181.835C590.203 182.878 587.754 181.663 584.678 178.294C583.63 177.146 581.383 175.986 580.851 174.537" fill="#e0cfcc" fill-rule="nonzero" opacity="1" stroke="#e0cfcc" stroke-linecap="round" stroke-linejoin="round" stroke-width="5.14577" vectornator:layerName="Кривая 3"/>
</g>
<path d="M412.777 499.949C416.262 508.01 418.532 515.519 423.462 522.641C429.064 530.734 442.797 533.887 450.639 539.513C478.743 559.674 523.323 576.946 557.266 581.465C564.173 582.384 571.183 584.335 578.057 585.586C583.323 586.544 588.977 585.002 594.226 585.587C597.704 585.975 600.001 586.911 603.255 584.742C607.981 581.592 611.003 575.803 614.326 571.434C616.262 568.89 619.416 565.194 620.063 561.962C625.552 534.528 617.469 504.206 607.367 478.525C601.709 464.14 593.816 450.193 589.007 435.554C586.161 426.889 583.608 417.455 581.706 408.559C578.188 392.108 585.138 378.58 565.624 369.848C561.595 368.044 556.949 366.843 552.476 367.23C529.495 369.219 510.393 386.057 491.609 397.26C468.074 411.296 440.444 422.858 422.527 444.169C415.721 452.266 408.389 477.815 411.266 488.367C412.728 493.731 412.411 498.596 414.633 503.735C415.321 505.327 415.213 506.9 415.622 508.551C415.853 509.48 416.564 512.245 416.184 511.367C414.82 508.212 407.381 490.308 412.584 488.889" fill="#e0cfcc" fill-rule="nonzero" opacity="1" stroke="#e0cfcc" stroke-linecap="round" stroke-linejoin="round" stroke-width="5.14577" vectornator:layerName="Кривая 2"/>
<path d="M619.906 367.219C616.523 367.478 613.147 368.491 610.125 369.844C590.612 378.576 597.549 392.111 594.031 408.562C592.129 417.458 589.597 426.897 586.75 435.562C581.941 450.201 574.033 464.146 568.375 478.531C558.273 504.213 550.199 534.534 555.688 561.969C556.334 565.2 559.502 568.893 561.438 571.438C564.761 575.806 567.774 581.6 572.5 584.75C575.755 586.92 578.052 585.982 581.531 585.594C586.78 585.008 592.421 586.552 597.688 585.594C604.561 584.343 611.563 582.388 618.469 581.469C652.413 576.95 697.021 559.661 725.125 539.5C732.968 533.874 746.679 530.75 752.281 522.656C756.047 517.216 758.299 511.434 760.688 505.469C760.79 504.892 760.876 504.327 761.125 503.75C762.185 501.297 762.658 498.881 763.031 496.469L763.156 488.875C763.646 489.009 763.937 489.413 764.219 489.812C764.327 489.323 764.333 488.872 764.469 488.375C767.346 477.823 760.025 452.253 753.219 444.156C735.303 422.845 707.66 411.287 684.125 397.25C665.341 386.047 646.262 369.208 623.281 367.219C622.163 367.122 621.034 367.132 619.906 367.219ZM764.219 489.812C763.716 492.082 763.367 494.296 763.031 496.469L762.969 499.938C762.146 501.841 761.426 503.625 760.688 505.469C760.506 506.483 760.386 507.51 760.125 508.562C759.895 509.492 759.183 512.253 759.562 511.375C760.798 508.517 766.926 493.658 764.219 489.812Z" fill="#e0cfcc" fill-rule="nonzero" opacity="1" stroke="#e0cfcc" stroke-linecap="round" stroke-linejoin="round" stroke-width="5.14577" vectornator:layerName="Кривая 5"/>
<path d="M570.067 379.063C577.113 379.063 578.702 390.141 585.046 391.047C592.414 392.1 596.348 379.729 600.025 379.729C600.475 379.729 600.046 380.658 600.247 381.061C601.986 384.538 601.468 389.799 601.468 393.599C601.468 403.246 600.533 413.592 598.361 423.003C597.517 426.66 596.308 431.51 592.147 432.435C576.215 435.975 572.809 405.711 573.395 395.152C573.548 392.398 573.028 385.032 575.947 383.28C578.67 381.646 582.724 388.224 587.82 387.496C594.428 386.552 597.761 376.672 605.573 380.839C609.079 382.708 609.634 387.952 609.79 391.38C610.269 401.922 606.139 413.332 595.587 417.677C582.215 423.183 571.629 403.094 572.286 391.935C572.447 389.202 571.087 380.102 575.171 379.285C578.891 378.541 581.186 382.543 584.824 382.947C592.131 383.759 597.794 375.447 604.797 381.283C608.43 384.311 607.689 390.347 606.794 394.376C604.222 405.948 599.172 413.412 587.709 417.233" fill="#e0cfcc" fill-rule="nonzero" opacity="1" stroke="#e0cfcc" stroke-linecap="round" stroke-linejoin="round" stroke-width="5.14577" vectornator:layerName="Кривая 3"/>
<path d="M612.363 371.07C611.184 369.123 606.713 371.691 605.572 372.275C599.187 375.545 594.528 380.055 587.009 381.113C580.875 381.975 576.739 375.824 571.943 373.292C569.872 372.198 567.64 371.521 565.989 374.14C563.446 378.174 567.021 382.194 569.565 385.011C574.262 390.21 578.478 395.235 584.648 398.738C589.603 401.55 603.157 406.429 608.761 403.035" fill="#e0cfcc" fill-rule="nonzero" opacity="1" stroke="#e0cfcc" stroke-linecap="round" stroke-linejoin="round" stroke-width="5.14577" vectornator:layerName="Кривая 4"/>
</g>
<path d="M546.835 373.048C542.349 385.998 530.968 392.86 520.79 401.003C490.474 425.256 446.642 433.922 430.244 473.276C415.458 508.763 440.002 540.651 471.972 552.639C472.779 552.942 473.608 553.185 474.426 553.458C485.354 557.1 494.961 566.506 506.347 568.783C507.87 569.088 513.364 574.951 514.059 573.562C514.347 572.986 509.69 570.145 505.311 562.892C503.208 559.409 502.517 555.914 501.699 552.094C499.55 542.068 506.192 529.446 510.153 520.73C523.523 491.316 554.454 470.972 565.517 440.548C568.42 432.566 569.886 424.695 569.608 416.548C568.823 393.517 562.473 387.203 555.699 375.912C554.908 374.594 549.553 368.178 547.62 369.145C547.419 369.245 546.89 372.89 546.835 373.048Z" fill="#3a2728" fill-rule="nonzero" opacity="1" stroke="#3a2728" stroke-linecap="round" stroke-linejoin="round" stroke-width="5.14577" vectornator:layerName="Кривая 3"/>
<path d="M627.188 369.812C624.857 370.411 620.661 375.44 619.969 376.594C613.194 387.884 606.847 394.218 606.062 417.25C605.785 425.396 607.254 433.268 610.156 441.25C621.219 471.674 652.161 492.024 665.531 521.438C669.493 530.153 676.117 542.755 673.969 552.781C673.15 556.601 672.478 560.111 670.375 563.594C667.463 568.417 665.17 570.633 663.75 572.031C664.398 571.793 665.026 571.446 665.688 571.344C666.011 571.294 666.332 571.354 666.656 571.344C667.706 570.509 668.837 569.57 669.344 569.469C680.73 567.192 690.322 557.799 701.25 554.156C702.068 553.883 702.911 553.647 703.719 553.344C735.688 541.355 760.224 509.456 745.438 473.969C729.04 434.615 685.222 425.94 654.906 401.688C644.728 393.545 633.33 386.7 628.844 373.75C628.789 373.591 628.264 369.944 628.062 369.844C627.821 369.723 627.52 369.727 627.188 369.812Z" fill="#3a2728" fill-rule="nonzero" opacity="1" stroke="#3a2728" stroke-linecap="round" stroke-linejoin="round" stroke-width="5.14577" vectornator:layerName="Кривая 4"/>
<path d="M495.906 545.5C495.482 545.406 497.387 552.44 497.812 553.5C498.262 554.618 498.88 555.626 499.375 556.719C502.172 562.896 509.387 572.703 516.625 574.469C516.622 574.44 516.628 574.404 516.625 574.375C516.62 574.332 516.628 574.293 516.625 574.25C516.625 574.25 514.682 573.774 508.268 568.783C503.371 564.973 502.156 554.085 502.156 554.085L494.832 522.472L495.906 545.5Z" fill="#3a2728" fill-rule="nonzero" opacity="1" stroke="#3a2728" stroke-linecap="round" stroke-linejoin="round" stroke-width="5.14577" vectornator:layerName="Кривая 2"/>
</g>
<path d="M481.381 264.482C482.842 261.559 476.277 267.465 475.49 268.409C472.04 272.549 467.982 276.213 466 281.499C462.149 291.768 457.219 333.586 466 342.367C466.984 343.351 469.81 335.402 470.254 334.513C472.715 329.592 476.199 325.56 479.745 321.423C485.677 314.501 494.664 307.954 501.67 302.115C504.563 299.705 511.743 297.023 513.451 293.607" fill="#d2887f" fill-rule="nonzero" opacity="1" stroke="#d2887f" stroke-linecap="round" stroke-linejoin="round" stroke-width="5.14577" vectornator:layerName="Кривая 2"/>
<path d="M693.86 264.482C692.399 261.559 698.964 267.465 699.751 268.409C703.201 272.549 707.259 276.213 709.241 281.499C713.092 291.768 718.022 333.586 709.241 342.367C708.257 343.351 705.431 335.402 704.987 334.513C702.527 329.592 699.042 325.56 695.497 321.423C689.564 314.501 680.577 307.954 673.571 302.115C670.678 299.705 663.498 297.023 661.79 293.607" fill="#d2887f" fill-rule="nonzero" opacity="1" stroke="#d2887f" stroke-linecap="round" stroke-linejoin="round" stroke-width="5.14577" vectornator:layerName="Кривая 1"/>
<path d="M721.469 256.156C709.467 256.745 688.281 268.172 680.594 272.531C669.451 278.851 658.352 280.727 655.969 294.625C655.655 296.454 654.547 299.016 655 300.906C655.091 301.287 667.685 305.02 668.906 305.531C668.919 305.537 668.75 306.431 668.594 307.219C669.741 307.159 670.783 307.553 671.594 308.281C671.717 308.361 671.885 308.346 672 308.438C672.604 306.228 673.257 303.718 673.562 303.062C680.165 288.889 698.714 273.99 713.125 267.281C724.256 262.099 737.088 270.726 740.844 281.781L740.594 280.469C739.338 272.267 735.208 259.592 726 256.625C724.728 256.215 723.183 256.072 721.469 256.156Z" fill="#3a2728" fill-rule="nonzero" opacity="1" stroke="#3a2728" stroke-linecap="round" stroke-linejoin="round" stroke-width="5.14577" vectornator:layerName="Кривая 4"/>
<path d="M452.175 256.156C464.176 256.745 485.363 268.172 493.05 272.531C496.386 274.423 502.41 277.204 508.694 279.95C510.654 280.807 511.371 281.579 513.451 282.285C514.709 282.712 517.972 282.597 518.014 283.937C518.385 295.557 543.538 289.065 544.851 296.72C545.164 298.548 519.096 299.016 518.644 300.906C518.553 301.287 505.958 305.02 504.737 305.531C504.725 305.537 504.894 306.431 505.05 307.219C503.903 307.159 502.861 307.553 502.05 308.281C501.926 308.361 501.759 308.346 501.644 308.438C501.04 306.228 500.387 303.718 500.081 303.062C493.479 288.889 474.929 273.99 460.519 267.281C449.387 262.099 436.555 270.726 432.8 281.781L433.05 280.469C434.306 272.267 438.435 259.592 447.644 256.625C448.916 256.215 450.46 256.072 452.175 256.156Z" fill="#3a2728" fill-rule="nonzero" opacity="1" stroke="#3a2728" stroke-linecap="round" stroke-linejoin="round" stroke-width="5.14577" vectornator:layerName="Кривая 3"/>
</g>
<g opacity="1" vectornator:layerName="Группа 5">
<path d="M451.919 252.51C415.508 252.51 442.141 353.838 436.279 392.619" fill="none" opacity="1" stroke="#3a2728" stroke-linecap="round" stroke-linejoin="round" stroke-width="5.14577" vectornator:layerName="Кривая 3"/>
<path d="M561.099 297.097C553.721 295.25 539.409 294.781 525.041 287.061C508.773 278.32 486.705 265.149 469.019 256.4C461.578 252.719 454.725 252.436 449.38 252.595" fill="none" opacity="1" stroke="#3a2728" stroke-linecap="round" stroke-linejoin="round" stroke-width="5.14577" vectornator:layerName="Кривая 80"/>
<path d="M437.021 385.208C436.853 385.749 436.979 388.822 436.556 391.184C435.837 395.2 433.957 399.937 432.376 404.654C428.12 417.352 416.537 448.673 412.608 462.993C408.848 476.697 404.65 490.904 407.285 501.289C413.213 524.647 437.163 536.18 462.769 551.045C508.851 577.797 554.046 585.044 587.011 588.02" fill="none" opacity="1" stroke="#3a2728" stroke-linecap="round" stroke-linejoin="round" stroke-width="5.14577" vectornator:layerName="Кривая 7"/>
<path d="M561.205 297.733C555.865 298.072 501.853 302.547 488.307 316.276C474.384 330.389 440.45 380.719 432.322 404.856" fill="none" opacity="1" stroke="#3a2728" stroke-linecap="butt" stroke-linejoin="round" stroke-width="5.14577" vectornator:layerName="Кривая 81"/>
<path d="M587.927 587.908C592.439 587.687 585.052 588.085 585.715 588.041C586.379 587.997 574.171 586.758 585.317 588.041" fill="none" opacity="1" stroke="#3a2728" stroke-linecap="butt" stroke-linejoin="round" stroke-width="5.14577" vectornator:layerName="Кривая 1"/>
<g opacity="1" vectornator:layerName="Группа 1">
<path d="M722.5 252.51C758.912 252.51 732.279 353.838 738.14 392.619" fill="none" opacity="1" stroke="#3a2728" stroke-linecap="round" stroke-linejoin="round" stroke-width="5.14577" vectornator:layerName="Кривая 3"/>
<path d="M655.398 283.777C670.822 275.257 689.813 264.11 705.4 256.4C712.842 252.719 719.694 252.436 725.039 252.595" fill="none" opacity="1" stroke="#3a2728" stroke-linecap="round" stroke-linejoin="round" stroke-width="5.14577" vectornator:layerName="Кривая 20"/>
<path d="M737.399 385.208C737.566 385.749 737.44 388.822 737.863 391.184C738.582 395.2 740.462 399.937 742.043 404.654C746.299 417.352 757.882 448.673 761.811 462.993C765.571 476.697 769.769 490.904 767.134 501.289C761.206 524.647 737.256 536.18 711.651 551.045C666.583 577.208 622.364 584.716 589.603 587.817" fill="none" opacity="1" stroke="#3a2728" stroke-linecap="round" stroke-linejoin="round" stroke-width="5.14577" vectornator:layerName="Кривая 7"/>
<path d="M651.774 302.98C665.997 305.876 680.074 310.157 686.112 316.276C700.035 330.389 733.97 380.719 742.097 404.856" fill="none" opacity="1" stroke="#3a2728" stroke-linecap="butt" stroke-linejoin="round" stroke-width="5.14577" vectornator:layerName="Кривая 21"/>
</g>
<path d="M578.49 473.465C581.527 471.279 590.377 470.858 593.604 471.868" fill="none" opacity="1" stroke="#3a2728" stroke-linecap="round" stroke-linejoin="round" stroke-width="5.14577" vectornator:layerName="Кривая 6"/>
<path d="M575.971 475.329C572.318 474.186 563.975 482.926 567.776 483.377" fill="none" opacity="1" stroke="#3a2728" stroke-linecap="round" stroke-linejoin="round" stroke-width="5.14577" vectornator:layerName="Кривая 7"/>
<path d="M569.99 483.113C571.408 483.003 574.11 483.267 575.242 482.452" fill="none" opacity="1" stroke="#3a2728" stroke-linecap="round" stroke-linejoin="round" stroke-width="5.14577" vectornator:layerName="Кривая 8"/>
<path d="M572.005 479.872C573.812 479.58 575.715 479.668 577.545 479.541" fill="none" opacity="1" stroke="#3a2728" stroke-linecap="round" stroke-linejoin="round" stroke-width="5.14577" vectornator:layerName="Кривая 9"/>
<path d="M575.937 477.732C577.161 477.534 578.497 477.988 579.688 478.254" fill="none" opacity="1" stroke="#3a2728" stroke-linecap="round" stroke-linejoin="round" stroke-width="5.14577" vectornator:layerName="Кривая 10"/>
<path d="M580.079 476.311C580.39 476.26 580.703 476.298 581.017 476.3" fill="none" opacity="1" stroke="#3a2728" stroke-linecap="round" stroke-linejoin="round" stroke-width="5.14577" vectornator:layerName="Кривая 11"/>
<path d="M582.643 476.178C583.376 475.452 584.255 475.073 585.409 475.261" fill="none" opacity="1" stroke="#3a2728" stroke-linecap="round" stroke-linejoin="round" stroke-width="5.14577" vectornator:layerName="Кривая 12"/>
<path d="M586.463 475.091C586.985 475.006 587.379 474.872 587.874 475.097" fill="none" opacity="1" stroke="#3a2728" stroke-linecap="round" stroke-linejoin="round" stroke-width="5.14577" vectornator:layerName="Кривая 13"/>
<path d="M589.742 475.313C590.139 475.248 590.536 475.184 590.933 475.12" fill="none" opacity="1" stroke="#3a2728" stroke-linecap="round" stroke-linejoin="round" stroke-width="5.14577" vectornator:layerName="Кривая 14"/>
<path d="M593.42 475.094C593.604 475.064 593.787 475.035 593.97 475.005" fill="none" opacity="1" stroke="#3a2728" stroke-linecap="round" stroke-linejoin="round" stroke-width="5.14577" vectornator:layerName="Кривая 15"/>
<path d="M596.185 474.459C596.633 474.328 596.421 474.374 596.819 474.309" fill="none" opacity="1" stroke="#3a2728" stroke-linecap="round" stroke-linejoin="round" stroke-width="5.14577" vectornator:layerName="Кривая 16"/>
<path d="M598.198 474.698L598.952 474.999" fill="none" opacity="1" stroke="#3a2728" stroke-linecap="round" stroke-linejoin="round" stroke-width="5.14577" vectornator:layerName="Кривая 17"/>
<path d="M600.26 475.821C602.262 476.572 605.398 478.834 606.423 480.795" fill="none" opacity="1" stroke="#3a2728" stroke-linecap="round" stroke-linejoin="round" stroke-width="5.14577" vectornator:layerName="Кривая 18"/>
<path d="M607.157 482.134C607.297 483 606.547 483.203 606.111 483.807" fill="none" opacity="1" stroke="#3a2728" stroke-linecap="round" stroke-linejoin="round" stroke-width="5.14577" vectornator:layerName="Кривая 19"/>
<path d="M605.764 484.569C605.757 484.523 605.749 484.477 605.742 484.431" fill="none" opacity="1" stroke="#3a2728" stroke-linecap="round" stroke-linejoin="round" stroke-width="5.14577" vectornator:layerName="Кривая 20"/>
<path d="M603.022 486.798C602.882 486.899 602.948 486.826 602.876 487.057" fill="none" opacity="1" stroke="#3a2728" stroke-linecap="round" stroke-linejoin="round" stroke-width="5.14577" vectornator:layerName="Кривая 21"/>
<path d="M601.444 488.087L601.023 488.391" fill="none" opacity="1" stroke="#3a2728" stroke-linecap="round" stroke-linejoin="round" stroke-width="5.14577" vectornator:layerName="Кривая 22"/>
<path d="M600.126 489.241C599.653 489.093 599.602 489.553 599.436 489.916" fill="none" opacity="1" stroke="#3a2728" stroke-linecap="round" stroke-linejoin="round" stroke-width="5.14577" vectornator:layerName="Кривая 23"/>
<path d="M599.044 490.685C598.446 490.498 597.489 492.536 597.11 492.972" fill="none" opacity="1" stroke="#3a2728" stroke-linecap="round" stroke-linejoin="round" stroke-width="5.14577" vectornator:layerName="Кривая 24"/>
<path d="M596.105 494.028L595.767 494.552" fill="none" opacity="1" stroke="#3a2728" stroke-linecap="round" stroke-linejoin="round" stroke-width="5.14577" vectornator:layerName="Кривая 25"/>
<path d="M594.476 496.453C594.324 496.563 594.399 496.48 594.337 496.758" fill="none" opacity="1" stroke="#3a2728" stroke-linecap="round" stroke-linejoin="round" stroke-width="5.14577" vectornator:layerName="Кривая 26"/>
<path d="M592.15 497.77L591.675 498.317" fill="none" opacity="1" stroke="#3a2728" stroke-linecap="round" stroke-linejoin="round" stroke-width="5.14577" vectornator:layerName="Кривая 27"/>
<path d="M590.137 499.27L589.602 499.451" fill="none" opacity="1" stroke="#3a2728" stroke-linecap="round" stroke-linejoin="round" stroke-width="5.14577" vectornator:layerName="Кривая 28"/>
<path d="M587.926 500.427C587.916 500.46 587.905 500.493 587.895 500.526" fill="none" opacity="1" stroke="#3a2728" stroke-linecap="round" stroke-linejoin="round" stroke-width="5.14577" vectornator:layerName="Кривая 29"/>
<path d="M587.145 501.117C586.908 501.097 587.017 501.091 586.816 501.123" fill="none" opacity="1" stroke="#3a2728" stroke-linecap="round" stroke-linejoin="round" stroke-width="5.14577" vectornator:layerName="Кривая 30"/>
<path d="M586.493 501.74C586.417 501.752 586.34 501.764 586.264 501.777" fill="none" opacity="1" stroke="#3a2728" stroke-linecap="round" stroke-linejoin="round" stroke-width="5.14577" vectornator:layerName="Кривая 31"/>
<path d="M584.649 499.64C584.311 499.315 584.007 499.022 583.578 498.826" fill="none" opacity="1" stroke="#3a2728" stroke-linecap="round" stroke-linejoin="round" stroke-width="5.14577" vectornator:layerName="Кривая 32"/>
<path d="M582.649 498.318C582.386 498.18 582.507 498.256 582.284 498.095" fill="none" opacity="1" stroke="#3a2728" stroke-linecap="round" stroke-linejoin="round" stroke-width="5.14577" vectornator:layerName="Кривая 33"/>
<path d="M580.661 496.195C578.093 491.288 571.613 489.179 569.255 485.253" fill="none" opacity="1" stroke="#3a2728" stroke-linecap="round" stroke-linejoin="round" stroke-width="5.14577" vectornator:layerName="Кривая 34"/>
<path d="M570.656 485.778C571.678 485.165 578.615 485.735 579.442 486.332" fill="none" opacity="1" stroke="#3a2728" stroke-linecap="round" stroke-linejoin="round" stroke-width="5.14577" vectornator:layerName="Кривая 35"/>
<path d="M577.377 487.513C578.747 487.736 580.404 489.247 581.423 490.149" fill="none" opacity="1" stroke="#3a2728" stroke-linecap="round" stroke-linejoin="round" stroke-width="5.14577" vectornator:layerName="Кривая 36"/>
<path d="M579.741 490.797C581.679 490.869 583.902 491.785 585.768 492.314" fill="none" opacity="1" stroke="#3a2728" stroke-linecap="round" stroke-linejoin="round" stroke-width="5.14577" vectornator:layerName="Кривая 37"/>
<path d="M582.357 494.182C584.293 493.735 586.838 493.535 588.757 494.228" fill="none" opacity="1" stroke="#3a2728" stroke-linecap="round" stroke-linejoin="round" stroke-width="5.14577" vectornator:layerName="Кривая 38"/>
<path d="M585.035 495.629C586.359 494.676 589.322 494.768 590.875 494.826" fill="none" opacity="1" stroke="#3a2728" stroke-linecap="round" stroke-linejoin="round" stroke-width="5.14577" vectornator:layerName="Кривая 39"/>
<path d="M586.862 496.462C585.313 495.344 590.66 495.8 592.415 495.047" fill="none" opacity="1" stroke="#3a2728" stroke-linecap="round" stroke-linejoin="round" stroke-width="5.14577" vectornator:layerName="Кривая 40"/>
<path d="M585.822 497.006C587.061 495.856 589.629 495.528 591.143 494.736" fill="none" opacity="1" stroke="#3a2728" stroke-linecap="round" stroke-linejoin="round" stroke-width="5.14577" vectornator:layerName="Кривая 41"/>
<path d="M592.323 492.148C592.189 491.319 593.186 491.444 593.791 491.346" fill="none" opacity="1" stroke="#3a2728" stroke-linecap="round" stroke-linejoin="round" stroke-width="5.14577" vectornator:layerName="Кривая 42"/>
<path d="M595.27 490.026C592.806 489.882 590.479 490.8 588.078 491.189" fill="none" opacity="1" stroke="#3a2728" stroke-linecap="round" stroke-linejoin="round" stroke-width="5.14577" vectornator:layerName="Кривая 43"/>
<path d="M592.923 489.465C589.997 487.636 585.605 488.89 582.351 487.46" fill="none" opacity="1" stroke="#3a2728" stroke-linecap="round" stroke-linejoin="round" stroke-width="5.14577" vectornator:layerName="Кривая 44"/>
<path d="M578.432 483.863C580.293 482.135 585.072 482.713 587.441 482.595" fill="none" opacity="1" stroke="#3a2728" stroke-linecap="round" stroke-linejoin="round" stroke-width="5.14577" vectornator:layerName="Кривая 45"/>
<path d="M587.288 481.068C584.748 480.655 581.975 481.881 579.41 482.06" fill="none" opacity="1" stroke="#3a2728" stroke-linecap="round" stroke-linejoin="round" stroke-width="5.14577" vectornator:layerName="Кривая 46"/>
<path d="M580.005 480.506C584.365 478.936 588.997 479.946 593.477 479.222" fill="none" opacity="1" stroke="#3a2728" stroke-linecap="round" stroke-linejoin="round" stroke-width="5.14577" vectornator:layerName="Кривая 47"/>
<path d="M595.678 478.302C589.434 476.81 582.561 477.475 594.221 478.302" fill="none" opacity="1" stroke="#3a2728" stroke-linecap="round" stroke-linejoin="round" stroke-width="5.14577" vectornator:layerName="Кривая 48"/>
<path d="M602.799 479.313C603.256 479.074 592.896 479.496 592.911 479.501" fill="none" opacity="1" stroke="#3a2728" stroke-linecap="round" stroke-linejoin="round" stroke-width="5.14577" vectornator:layerName="Кривая 49"/>
<path d="M602.823 480.625C600.733 480.615 591.344 481.491 592.511 481.681" fill="none" opacity="1" stroke="#3a2728" stroke-linecap="round" stroke-linejoin="round" stroke-width="5.14577" vectornator:layerName="Кривая 50"/>
<path d="M603.192 483.198C601.011 483 592.127 484.162 593.437 484.211" fill="none" opacity="1" stroke="#3a2728" stroke-linecap="round" stroke-linejoin="round" stroke-width="5.14577" vectornator:layerName="Кривая 51"/>
<path d="M600.725 485.383C599.071 485.279 585.955 486.383 591.047 486.29" fill="none" opacity="1" stroke="#3a2728" stroke-linecap="round" stroke-linejoin="round" stroke-width="5.14577" vectornator:layerName="Кривая 52"/>
<path d="M596.991 487.585C592.598 487.485 588.251 487.511 583.887 487.071" fill="none" opacity="1" stroke="#3a2728" stroke-linecap="round" stroke-linejoin="round" stroke-width="5.14577" vectornator:layerName="Кривая 53"/>
<path d="M593.103 483.889C589.603 483.828 586.193 484.442 582.752 484.998" fill="none" opacity="1" stroke="#3a2728" stroke-linecap="round" stroke-linejoin="round" stroke-width="5.14577" vectornator:layerName="Кривая 54"/>
<path d="M593.256 472.089C593.049 471.318 587.94 471.893 587.21 471.906" fill="none" opacity="1" stroke="#3a2728" stroke-linecap="round" stroke-linejoin="round" stroke-width="5.14577" vectornator:layerName="Кривая 5"/>
<path d="M580.72 480.047C580.927 479.276 586.036 479.851 586.765 479.864" fill="none" opacity="1" stroke="#3a2728" stroke-linecap="round" stroke-linejoin="round" stroke-width="5.14577" vectornator:layerName="Кривая 3"/>
<path d="M594.289 470.023C590.096 469.116 586.554 468.867 582.526 470.433" fill="none" opacity="1" stroke="#3a2728" stroke-linecap="round" stroke-linejoin="round" stroke-width="5.14577" vectornator:layerName="Кривая 55"/>
<path d="M589.843 469.955C587.238 469.738 583.419 469.286 580.987 470.502" fill="none" opacity="1" stroke="#3a2728" stroke-linecap="round" stroke-linejoin="round" stroke-width="5.14577" vectornator:layerName="Кривая 56"/>
<path d="M587.86 469.681C585.707 469.601 583.623 469.748 581.568 470.433" fill="none" opacity="1" stroke="#3a2728" stroke-linecap="round" stroke-linejoin="round" stroke-width="5.14577" vectornator:layerName="Кривая 57"/>
<path d="M462.133 277.574C461.367 281.274 462.328 293.775 467.698 294.886" fill="none" opacity="1" stroke="#3a2728" stroke-linecap="round" stroke-linejoin="round" stroke-width="5.14577" vectornator:layerName="Кривая 58"/>
<path d="M457.078 297.883C456.177 302.242 463.056 305.514 466.216 306.168" fill="none" opacity="1" stroke="#3a2728" stroke-linecap="round" stroke-linejoin="round" stroke-width="5.14577" vectornator:layerName="Кривая 59"/>
<path d="M460.157 319.72C461.234 319.943 463.325 319.338 464.131 319.805" fill="none" opacity="1" stroke="#3a2728" stroke-linecap="round" stroke-linejoin="round" stroke-width="5.14577" vectornator:layerName="Кривая 60"/>
<path d="M712.497 278.427C710.303 284.73 713.257 289.997 707.551 295.554" fill="none" opacity="1" stroke="#3a2728" stroke-linecap="round" stroke-linejoin="round" stroke-width="5.14577" vectornator:layerName="Кривая 61"/>
<path d="M707.631 306.207C712.651 305.558 714.326 302.585 717.053 299.047" fill="none" opacity="1" stroke="#3a2728" stroke-linecap="round" stroke-linejoin="round" stroke-width="5.14577" vectornator:layerName="Кривая 62"/>
<path d="M709.927 320.312C711.506 320.108 713.539 320.888 715.012 319.773" fill="none" opacity="1" stroke="#3a2728" stroke-linecap="round" stroke-linejoin="round" stroke-width="5.14577" vectornator:layerName="Кривая 63"/>
<path d="M559.802 296.941L571.373 207.653C571.373 207.653 539.751 184.988 551.622 168.051C563.493 151.115 590.085 150.798 596.891 157.446" fill="none" opacity="1" stroke="#3a2728" stroke-linecap="butt" stroke-linejoin="round" stroke-width="5.14577" vectornator:layerName="Кривая 66"/>
<path d="M559.904 296.021C559.904 296.021 588.772 324.95 650.269 310.417" fill="none" opacity="1" stroke="#3a2728" stroke-linecap="butt" stroke-linejoin="round" stroke-width="5.14577" vectornator:layerName="Кривая 67"/>
<path d="M649.767 311.49L663.419 224.193C663.419 224.193 693.123 221.751 695.391 196.277C697.66 170.803 658.917 168.152 655.615 170.67" fill="none" opacity="1" stroke="#3a2728" stroke-linecap="butt" stroke-linejoin="round" stroke-width="5.14577" vectornator:layerName="Кривая 74"/>
<path d="M657.034 171.17C657.034 171.17 635.64 133.95 597.458 158.789" fill="none" opacity="1" stroke="#3a2728" stroke-linecap="butt" stroke-linejoin="round" stroke-width="5.14577" vectornator:layerName="Кривая 69"/>
<path d="M597.846 157.788C597.461 158.031 597.432 158.822 597.186 159.228" fill="none" opacity="1" stroke="#3a2728" stroke-linecap="round" stroke-linejoin="round" stroke-width="5.14577" vectornator:layerName="Кривая 70"/>
<path d="M656.844 170.374L656.826 170.388C656.817 170.395 656.812 170.405 656.812 170.417L656.812 170.479L656.812 170.56L656.788 170.608L656.788 170.649L656.788 170.649C656.779 170.666 656.757 170.674 656.74 170.665L656.74 170.665L656.715 170.633L656.695 170.612C656.684 170.601 656.665 170.6 656.652 170.61L656.643 170.617" fill="none" opacity="1" stroke="#3a2728" stroke-linecap="round" stroke-linejoin="round" stroke-width="5.14577" vectornator:layerName="Кривая 71"/>
<path d="M587.906 192.927C589.877 194.861 591.437 197.644 592.836 200.038" fill="none" opacity="1" stroke="#3a2728" stroke-linecap="round" stroke-linejoin="round" stroke-width="5.14577" vectornator:layerName="Кривая 72"/>
<path d="M645.936 202.432C643.805 202.452 638.565 205.486 637.544 207.577" fill="none" opacity="1" stroke="#3a2728" stroke-linecap="round" stroke-linejoin="round" stroke-width="5.14577" vectornator:layerName="Кривая 73"/>
<path d="M649.706 310.437C649.791 309.74 650.103 310.53 650.139 310.534" fill="none" opacity="1" stroke="#3a2728" stroke-linecap="round" stroke-linejoin="round" stroke-width="5.14577" vectornator:layerName="Кривая 75"/>
<g opacity="1" vectornator:layerName="Группа 4">
<path d="M533.009 512.762C533.009 512.762 546.762 527.332 559.901 525.153C573.041 522.974 584.328 516.72 585.42 507.731C586.511 498.742 576.626 500.829 575.185 494.14C573.744 487.452 563.483 490.905 563.724 483.197C563.965 475.488 576.62 471.07 579.072 469.985C581.525 468.9 574.519 459.847 573.682 451.143C572.845 442.438 583.605 373.537 585.381 366.366C587.157 359.196 590.752 376.239 592.864 391.549C594.977 406.858 601.241 440.922 600.561 449.304C599.881 457.685 593.358 467.047 594.083 472.269" fill="none" opacity="1" stroke="#3a2728" stroke-linecap="butt" stroke-linejoin="round" stroke-width="5.14577" vectornator:layerName="Кривая 4"/>
<path d="M641.624 512.762C641.624 512.762 627.872 527.332 614.732 525.153C601.593 522.974 590.305 516.72 589.213 507.731C588.122 498.742 598.007 500.829 599.448 494.14C600.889 487.452 611.15 490.905 610.909 483.197C610.668 475.488 598.013 471.07 595.561 469.985C593.109 468.9 600.114 459.847 600.951 451.143C601.788 442.438 591.029 373.537 589.252 366.366C587.476 359.196 583.881 376.239 581.769 391.549C579.656 406.858 573.392 440.922 574.072 449.304C574.752 457.685 581.275 467.047 580.55 472.269" fill="none" opacity="1" stroke="#3a2728" stroke-linecap="round" stroke-linejoin="round" stroke-width="5.14577" vectornator:layerName="Кривая 2"/>
<g opacity="1" vectornator:layerName="Группа 3">
<path d="M622.448 418.316C627.94 409.5 644.595 407.364 657.481 415.392C670.366 423.42 674.604 438.57 669.111 447.386C663.619 456.203 648.721 456.842 635.835 448.814C622.949 440.786 616.956 427.132 622.448 418.316Z" fill="#faefee" fill-rule="nonzero" opacity="1" stroke="none" vectornator:layerName="Овал 1"/>
<path d="M624.772 419.309C629.745 411.327 645.075 409.55 657.034 417C668.993 424.45 673.053 438.307 668.08 446.29C663.107 454.272 649.381 454.703 637.422 447.253C625.463 439.802 619.799 427.291 624.772 419.309Z" fill="#000000" fill-rule="nonzero" opacity="1" stroke="none" vectornator:layerName="Овал 4"/>
<path d="M630.921 425.247C630.921 422.44 633.197 420.164 636.004 420.164C638.811 420.164 641.087 422.44 641.087 425.247C641.087 428.054 638.811 430.329 636.004 430.329C633.197 430.329 630.921 428.054 630.921 425.247Z" fill="#ffffff" fill-rule="nonzero" opacity="1" stroke="none" vectornator:layerName="Овал 2"/>
<path d="M656.643 441.391C656.643 439.384 658.27 437.757 660.278 437.757C662.285 437.757 663.912 439.384 663.912 441.391C663.912 443.399 662.285 445.026 660.278 445.026C658.27 445.026 656.643 443.399 656.643 441.391Z" fill="#ffffff" fill-rule="nonzero" opacity="1" stroke="none" vectornator:layerName="Овал 3"/>
</g>
<g opacity="1" vectornator:layerName="Группа 2">
<path d="M550.922 418.316C545.43 409.5 528.776 407.364 515.89 415.392C503.004 423.42 498.767 438.57 504.259 447.386C509.752 456.203 524.65 456.842 537.536 448.814C550.421 440.786 556.415 427.132 550.922 418.316Z" fill="#faefee" fill-rule="nonzero" opacity="1" stroke="none" vectornator:layerName="Овал 1"/>
<path d="M548.599 419.309C543.626 411.327 528.296 409.55 516.337 417C504.378 424.45 500.317 438.307 505.29 446.29C510.263 454.272 523.989 454.703 535.949 447.253C547.908 439.802 553.571 427.291 548.599 419.309Z" fill="#000000" fill-rule="nonzero" opacity="1" stroke="none" vectornator:layerName="Овал 4"/>
<path d="M542.449 425.247C542.449 422.44 540.174 420.164 537.366 420.164C534.559 420.164 532.284 422.44 532.284 425.247C532.284 428.054 534.559 430.329 537.366 430.329C540.174 430.329 542.449 428.054 542.449 425.247Z" fill="#ffffff" fill-rule="nonzero" opacity="1" stroke="none" vectornator:layerName="Овал 2"/>
<path d="M516.728 441.391C516.728 439.384 515.1 437.757 513.093 437.757C511.086 437.757 509.458 439.384 509.458 441.391C509.458 443.399 511.086 445.026 513.093 445.026C515.1 445.026 516.728 443.399 516.728 441.391Z" fill="#ffffff" fill-rule="nonzero" opacity="1" stroke="none" vectornator:layerName="Овал 3"/>
</g>
</g>
</g>
</g>
</g>
</svg>
